<svg width="167" height="30" viewBox="0 0 167 30" fill="none" xmlns="http://www.w3.org/2000/svg">
<path d="M7.73752 2.71656C6.82303 2.71656 6.12635 2.96569 5.64896 3.46248C5.19096 3.95926 4.96272 4.6962 4.96272 5.67037V7.52029H9.79627V9.31047H5.02241V23.2144H2.90397V9.31047H0.0993042V7.52029H2.90397V5.58087C2.90397 4.1487 3.31126 3.0149 4.12729 2.17947C4.96273 1.34404 6.13678 0.926331 7.64802 0.926331C8.24475 0.926331 8.8221 1.01583 9.37856 1.19485C9.93502 1.35448 10.4035 1.59319 10.7809 1.91095L10.0648 3.4923C9.44866 2.97463 8.67291 2.71656 7.73752 2.71656ZM26.0603 16.0238H12.9321C13.0515 17.6543 13.678 18.9776 14.8118 19.9921C15.9456 20.9871 17.3778 21.4839 19.1084 21.4839C20.0825 21.4839 20.9776 21.3153 21.7937 20.9767C22.6082 20.6186 23.3153 20.101 23.9121 19.4251L25.1055 20.7977C24.4089 21.6331 23.5332 22.2701 22.4799 22.7072C21.4446 23.1443 20.3018 23.3636 19.0487 23.3636C17.4375 23.3636 16.0053 23.025 14.7522 22.3492C13.5184 21.6525 12.5532 20.6977 11.858 19.4848C11.1613 18.272 10.8137 16.8995 10.8137 15.3673C10.8137 13.8352 11.1419 12.4628 11.7983 11.2499C12.4741 10.037 13.3886 9.09116 14.5433 8.41535C15.7159 7.73955 17.0287 7.40091 18.4818 7.40091C19.9333 7.40091 21.2357 7.73955 22.3904 8.41535C23.5436 9.09116 24.4491 10.037 25.1055 11.2499C25.762 12.4434 26.0902 13.8158 26.0902 15.3673L26.0603 16.0238ZM18.4818 9.22096C16.969 9.22096 15.6965 9.70881 14.6627 10.683C13.6482 11.6378 13.0709 12.8909 12.9321 14.4424H24.0613C23.921 12.8909 23.3347 11.6378 22.3009 10.683C21.2864 9.70881 20.0124 9.22096 18.4818 9.22096ZM38.4874 7.40091C39.9598 7.40091 41.2921 7.73955 42.4855 8.41535C43.679 9.07176 44.6143 10.0072 45.2902 11.22C45.966 12.4329 46.3046 13.8158 46.3046 15.3673C46.3046 16.9189 45.966 18.3018 45.2902 19.5147C44.6143 20.7275 43.679 21.6734 42.4855 22.3492C41.2921 23.025 39.9598 23.3636 38.4874 23.3636C37.1745 23.3636 35.9915 23.0847 34.9368 22.5282C33.9029 21.9717 33.0675 21.1662 32.4305 20.1114V23.2144H30.4016V1.07552H32.52V10.504C33.1764 9.48952 34.0119 8.72419 35.0263 8.20652C36.0602 7.66946 37.2148 7.40091 38.4874 7.40091ZM38.3382 21.4839C39.4317 21.4839 40.4267 21.2348 41.3218 20.738C42.217 20.2203 42.9137 19.4953 43.4105 18.5599C43.9281 17.6245 44.1862 16.5608 44.1862 15.3673C44.1862 14.1739 43.9281 13.1102 43.4105 12.1748C42.9137 11.2394 42.217 10.5234 41.3218 10.0266C40.4267 9.5089 39.4317 9.25083 38.3382 9.25083C37.2238 9.25083 36.2198 9.5089 35.3247 10.0266C34.449 10.5234 33.7538 11.2394 33.2361 12.1748C32.7393 13.1102 32.4902 14.1739 32.4902 15.3673C32.4902 16.5608 32.7393 17.6245 33.2361 18.5599C33.7538 19.4953 34.449 20.2203 35.3247 20.738C36.2198 21.2348 37.2238 21.4839 38.3382 21.4839ZM52.6524 10.5935C53.1492 9.53874 53.8847 8.74358 54.8603 8.20652C55.8539 7.66946 57.0772 7.40091 58.5303 7.40091V9.45966L58.023 9.42984C56.3716 9.42984 55.0782 9.93705 54.1443 10.9515C53.2089 11.966 52.7419 13.3877 52.7419 15.2182V23.2144H50.6235V7.52029H52.6524V10.5935ZM76.7412 7.52029V23.2144H74.7123V20.3501C74.1558 21.3049 73.389 22.0508 72.4149 22.5878C71.4407 23.1055 70.3262 23.3636 69.0731 23.3636C67.0248 23.3636 65.4032 22.7967 64.2097 21.6629C63.0357 20.5097 62.4493 18.8284 62.4493 16.6205V7.52029H64.5678V16.4116C64.5678 18.0631 64.9751 19.3162 65.7911 20.1711C66.6071 21.0259 67.7707 21.4541 69.282 21.4541C70.9334 21.4541 72.2358 20.9573 73.1906 19.9622C74.1453 18.9478 74.6228 17.5454 74.6228 15.7552V7.52029H76.7412ZM88.1642 7.40091C90.2125 7.40091 91.7849 7.9186 92.8784 8.95244C93.9719 9.96689 94.5194 11.4781 94.5194 13.4876V23.2144H92.4905V20.7678C92.0132 21.5838 91.3075 22.2194 90.3721 22.6774C89.4576 23.1354 88.3626 23.3636 87.0901 23.3636C85.3401 23.3636 83.9468 22.9459 82.9129 22.1105C81.8791 21.2751 81.3614 20.1711 81.3614 18.7986C81.3614 17.4664 81.8388 16.3923 82.7936 15.5762C83.7677 14.7602 85.3103 14.3529 87.4182 14.3529H92.401V13.3981C92.401 12.045 92.0236 11.0216 91.2672 10.3249C90.5108 9.60883 89.4069 9.25083 87.9554 9.25083C86.9603 9.25083 86.0055 9.4194 85.091 9.75805C84.1765 10.0758 83.3903 10.5234 82.7339 11.1007L81.7791 9.51935C82.5743 8.84354 83.529 8.32586 84.6434 7.96782C85.7578 7.59038 86.9304 7.40091 88.1642 7.40091ZM87.4182 21.6928C88.6117 21.6928 89.6367 21.4242 90.4915 20.8872C91.3463 20.3307 91.9833 19.5341 92.401 18.5002V15.9342H87.478C84.7927 15.9342 83.45 16.8696 83.45 18.7389C83.45 19.6534 83.7976 20.3799 84.4943 20.917C85.191 21.4347 86.1651 21.6928 87.4182 21.6928ZM102.302 10.5935C102.799 9.53874 103.535 8.74358 104.51 8.20652C105.504 7.66946 106.727 7.40091 108.18 7.40091V9.45966L107.673 9.42984C106.022 9.42984 104.728 9.93705 103.794 10.9515C102.859 11.966 102.392 13.3877 102.392 15.2182V23.2144H100.273V7.52029H102.302V10.5935ZM125.873 7.52029L118.026 25.0942C117.389 26.5666 116.654 27.6109 115.818 28.227C114.983 28.8431 113.979 29.152 112.805 29.152C112.049 29.152 111.343 29.0326 110.687 28.7939C110.03 28.5552 109.463 28.1972 108.986 27.7198L109.97 26.1384C110.766 26.9336 111.72 27.3319 112.835 27.3319C113.551 27.3319 114.158 27.1335 114.655 26.7352C115.172 26.3368 115.65 25.6611 116.087 24.7063L116.773 23.1846L109.762 7.52029H111.97L117.877 20.8573L123.785 7.52029H125.873ZM149.525 21.3049V23.2144H134.875V21.6928L143.558 13.1893C144.653 12.1151 145.388 11.1902 145.766 10.4145C146.164 9.61931 146.362 8.82266 146.362 8.02751C146.362 6.79375 145.936 5.83896 145.079 5.16315C144.244 4.46646 143.042 4.11889 141.469 4.11889C139.023 4.11889 137.123 4.89465 135.77 6.44616L134.249 5.13333C135.065 4.17855 136.099 3.44306 137.352 2.92539C138.626 2.40772 140.058 2.14965 141.648 2.14965C143.777 2.14965 145.458 2.65686 146.691 3.67131C147.944 4.66637 148.57 6.03888 148.57 7.78881C148.57 8.86293 148.332 9.89676 147.854 10.8918C147.377 11.8869 146.473 13.0297 145.139 14.3231L138.038 21.3049H149.525ZM166.484 21.3049V23.2144H151.834V21.6928L160.517 13.1893C161.611 12.1151 162.346 11.1902 162.725 10.4145C163.122 9.61931 163.322 8.82266 163.322 8.02751C163.322 6.79375 162.894 5.83896 162.039 5.16315C161.203 4.46646 159.999 4.11889 158.428 4.11889C155.982 4.11889 154.081 4.89465 152.73 6.44616L151.208 5.13333C152.022 4.17855 153.058 3.44306 154.311 2.92539C155.584 2.40772 157.016 2.14965 158.607 2.14965C160.735 2.14965 162.416 2.65686 163.65 3.67131C164.903 4.66637 165.53 6.03888 165.53 7.78881C165.53 8.86293 165.291 9.89676 164.814 10.8918C164.336 11.8869 163.431 13.0297 162.098 14.3231L154.997 21.3049H166.484Z" fill="black"/>
</svg>
