<svg width="167" height="30" fill="none" xmlns="http://www.w3.org/2000/svg"><path d="M7.738 2.717c-.915 0-1.612.249-2.089.745-.458.497-.686 1.234-.686 2.208v1.85h4.833v1.79H5.022v13.904H2.904V9.31H.099V7.52h2.805V5.58c0-1.431.407-2.565 1.223-3.4.836-.836 2.01-1.254 3.521-1.254.597 0 1.174.09 1.73.269.557.16 1.025.398 1.403.716l-.716 1.581c-.616-.517-1.392-.775-2.327-.775zM26.06 16.024H12.932c.12 1.63.746 2.954 1.88 3.968 1.134.995 2.566 1.492 4.296 1.492.974 0 1.87-.169 2.686-.507a6.042 6.042 0 002.118-1.552l1.194 1.373a6.704 6.704 0 01-2.626 1.91c-1.035.436-2.178.656-3.431.656-1.611 0-3.044-.339-4.297-1.015a7.551 7.551 0 01-2.894-2.864c-.697-1.213-1.044-2.585-1.044-4.118 0-1.532.328-2.904.984-4.117.676-1.213 1.59-2.159 2.745-2.835 1.173-.675 2.486-1.014 3.939-1.014 1.451 0 2.754.339 3.908 1.014 1.154.676 2.06 1.622 2.715 2.835.657 1.193.985 2.566.985 4.117l-.03.657zM18.482 9.22c-1.513 0-2.785.488-3.82 1.462-1.014.955-1.591 2.208-1.73 3.76h11.13c-.141-1.552-.727-2.805-1.761-3.76-1.015-.974-2.289-1.462-3.82-1.462zM38.487 7.4c1.473 0 2.805.339 3.998 1.014a7.048 7.048 0 012.805 2.805c.676 1.213 1.015 2.596 1.015 4.147 0 1.552-.339 2.935-1.015 4.148a7.248 7.248 0 01-2.804 2.834c-1.194.676-2.526 1.015-3.999 1.015-1.313 0-2.495-.28-3.55-.836-1.034-.556-1.87-1.362-2.506-2.417v3.103H30.4V1.076h2.119v9.428c.656-1.014 1.492-1.78 2.506-2.297 1.034-.538 2.189-.806 3.461-.806zm-.149 14.083c1.094 0 2.089-.25 2.984-.746a5.372 5.372 0 002.088-2.178c.518-.935.776-2 .776-3.193s-.258-2.257-.776-3.192a5.17 5.17 0 00-2.088-2.148c-.895-.518-1.89-.776-2.984-.776-1.114 0-2.118.258-3.013.776-.876.496-1.571 1.212-2.089 2.148-.497.935-.746 1.999-.746 3.192 0 1.194.25 2.258.746 3.193.518.935 1.213 1.66 2.089 2.178.895.497 1.899.746 3.013.746zm14.314-10.89c.497-1.055 1.233-1.85 2.208-2.387.994-.538 2.217-.806 3.67-.806v2.06l-.507-.03c-1.651 0-2.945.507-3.879 1.521-.935 1.015-1.402 2.437-1.402 4.267v7.996h-2.118V7.52h2.028v3.074zm24.09-3.074v15.694h-2.03V20.35a5.915 5.915 0 01-2.297 2.238c-.974.517-2.089.776-3.342.776-2.048 0-3.67-.567-4.863-1.701-1.174-1.153-1.76-2.835-1.76-5.043v-9.1h2.118v8.892c0 1.651.407 2.904 1.223 3.76.816.854 1.98 1.282 3.491 1.282 1.651 0 2.954-.497 3.909-1.492.954-1.014 1.432-2.417 1.432-4.207V7.52h2.118zm11.422-.12c2.049 0 3.62.519 4.714 1.552 1.094 1.015 1.641 2.526 1.641 4.536v9.726H92.49v-2.446c-.477.816-1.182 1.451-2.118 1.91-.914.457-2.01.686-3.282.686-1.75 0-3.143-.418-4.177-1.254-1.034-.835-1.552-1.939-1.552-3.311 0-1.333.478-2.407 1.433-3.223.974-.816 2.516-1.223 4.624-1.223h4.983v-.955c0-1.353-.377-2.376-1.134-3.073-.756-.716-1.86-1.074-3.312-1.074a8.17 8.17 0 00-2.864.507c-.914.318-1.7.765-2.357 1.343l-.955-1.582c.795-.675 1.75-1.193 2.864-1.551a10.896 10.896 0 013.521-.567zm-.746 14.293c1.194 0 2.219-.269 3.073-.806.855-.556 1.492-1.353 1.91-2.387v-2.566h-4.923c-2.685 0-4.028.936-4.028 2.805 0 .914.348 1.64 1.044 2.178.697.518 1.671.776 2.924.776zm14.884-11.1c.497-1.054 1.233-1.85 2.208-2.386.994-.538 2.217-.806 3.67-.806v2.06l-.507-.03c-1.651 0-2.945.507-3.879 1.521-.935 1.015-1.402 2.437-1.402 4.267v7.996h-2.119V7.52h2.029v3.074zm23.571-3.073l-7.847 17.574c-.637 1.473-1.372 2.517-2.208 3.133-.835.616-1.839.925-3.013.925-.756 0-1.462-.12-2.118-.358a4.583 4.583 0 01-1.701-1.074l.984-1.582c.796.796 1.75 1.194 2.865 1.194.716 0 1.323-.198 1.82-.597.517-.398.995-1.074 1.432-2.029l.686-1.521-7.011-15.665h2.208l5.907 13.337 5.908-13.337h2.088zm23.652 13.785v1.91h-14.65v-1.522l8.683-8.504c1.095-1.074 1.83-1.999 2.208-2.774.398-.796.596-1.592.596-2.387 0-1.234-.426-2.189-1.283-2.865-.835-.697-2.037-1.044-3.61-1.044-2.446 0-4.346.776-5.699 2.327l-1.521-1.313c.816-.954 1.85-1.69 3.103-2.208 1.274-.517 2.706-.775 4.296-.775 2.129 0 3.81.507 5.043 1.521 1.253.995 1.879 2.368 1.879 4.118a7.081 7.081 0 01-.716 3.103c-.477.995-1.381 2.138-2.715 3.431l-7.101 6.982h11.487zm16.959 0v1.91h-14.65v-1.522l8.683-8.504c1.094-1.074 1.829-1.999 2.208-2.774.397-.796.597-1.592.597-2.387 0-1.234-.428-2.189-1.283-2.865-.836-.697-2.04-1.044-3.611-1.044-2.446 0-4.347.776-5.698 2.327l-1.522-1.313c.814-.954 1.85-1.69 3.103-2.208 1.273-.517 2.705-.775 4.296-.775 2.128 0 3.809.507 5.043 1.521 1.253.995 1.88 2.368 1.88 4.118a7.095 7.095 0 01-.716 3.103c-.478.995-1.383 2.138-2.716 3.431l-7.101 6.982h11.487z" fill="#000"/></svg>