<svg width="73" height="104" viewBox="0 0 73 104" fill="none" xmlns="http://www.w3.org/2000/svg">
<path d="M71.3638 85.0362V103.082H0.901154V83.3176C0.901154 78.0664 1.66499 73.5789 3.19264 69.8552C4.81576 66.1316 7.05948 62.9808 9.92382 60.4029C12.8836 57.825 16.4163 55.7245 20.5219 54.1014C24.6274 52.3828 29.2581 50.9506 34.4139 49.8049C38.233 48.9456 41.336 47.9908 43.7229 46.9406C46.2054 45.7949 48.1627 44.5536 49.5949 43.2169C51.027 41.7848 51.9818 40.2571 52.4592 38.634C53.0321 36.9154 53.3185 35.0058 53.3185 32.9053C53.3185 28.8952 51.8386 25.5535 48.8788 22.8801C46.0145 20.2068 42.0044 18.8701 36.8486 18.8701C31.4063 18.8701 27.0621 20.5409 23.8159 23.8827C20.5696 27.1289 18.9465 31.6641 18.9465 37.4883V43.7898H0.0418701V35.7697C0.0418701 31.0913 0.853415 26.6515 2.47654 22.4505C4.19514 18.154 6.58211 14.4304 9.6374 11.2796C12.7882 8.03334 16.6073 5.5032 21.0947 3.68912C25.5822 1.77957 30.6425 0.824768 36.2757 0.824768C42.2908 0.824768 47.5421 1.73182 52.0296 3.54589C56.5171 5.26449 60.2407 7.55597 63.2005 10.4203C66.2558 13.2846 68.4995 16.6264 69.9317 20.4455C71.4593 24.1691 72.2231 28.036 72.2231 32.046V33.7646C72.2231 42.1667 69.8362 49.1366 65.0623 54.6743C60.3839 60.212 52.6979 64.2221 42.0044 66.7045C37.5169 67.7547 33.7933 68.8527 30.8335 69.9985C27.9691 71.0487 25.7254 72.2422 24.1023 73.5789C22.4792 74.9156 21.3334 76.3955 20.6651 78.0186C20.0922 79.5463 19.8058 81.3126 19.8058 83.3176V85.0362H71.3638Z" fill="#4391C9"/>
</svg>
