<svg id="Layer_1" data-name="Layer 1" xmlns="http://www.w3.org/2000/svg" viewBox="0 0 39.7 39.7"><defs><style>.cls-1,.cls-2,.cls-3,.cls-4,.cls-5{fill:none;stroke-miterlimit:10;}.cls-1,.cls-3{stroke:#0b9d58;}.cls-1{stroke-width:8px;}.cls-2{stroke:#547dbf;}.cls-4{stroke:#e19126;}.cls-5{stroke:#db4536;}</style></defs><title>logo_update</title><path class="cls-1" d="M280.3,292.36" transform="translate(-267.95 -268.66)"/><path class="cls-2" d="M307.14,288.51a19.35,19.35,0,1,0-19.35,19.35A19.35,19.35,0,0,0,307.14,288.51Z" transform="translate(-267.95 -268.66)"/><path class="cls-3" d="M279.13,285.33c-1.42.78-2.68,1.51-2.68,3.18s1.26,2.4,2.68,3.18" transform="translate(-267.95 -268.66)"/><path class="cls-3" d="M281.47,293c1.42.78,2.68,1.51,2.68,3.18a3.85,3.85,0,0,1-3.85,3.85" transform="translate(-267.95 -268.66)"/><path class="cls-1" d="M280.3,284.65" transform="translate(-267.95 -268.66)"/><path class="cls-3" d="M280.3,277a3.85,3.85,0,0,1,3.85,3.85c0,1.67-1.26,2.4-2.68,3.18" transform="translate(-267.95 -268.66)"/><path class="cls-3" d="M280.3,300.07a3.85,3.85,0,0,1-3.85-3.85c0-2.13,2.05-2.73,3.85-3.86s3.85-1.72,3.85-3.85-2-2.73-3.85-3.86-3.85-1.72-3.85-3.85A3.85,3.85,0,0,1,280.3,277" transform="translate(-267.95 -268.66)"/><path class="cls-4" d="M298.72,291.94a3.86,3.86,0,1,0-3.86-3.86A3.86,3.86,0,0,0,298.72,291.94Z" transform="translate(-267.95 -268.66)"/><path class="cls-5" d="M289.72,280.8a3.86,3.86,0,0,1,3.86,3.85c0,1.68-1.27,2.4-2.68,3.19" transform="translate(-267.95 -268.66)"/><path class="cls-5" d="M288.55,289.18c-1.42.78-2.68,1.51-2.68,3.18a3.85,3.85,0,0,0,3.85,3.86" transform="translate(-267.95 -268.66)"/><path class="cls-5" d="M289.72,296.22a3.86,3.86,0,0,0,3.86-3.86c0-2.13-2.05-2.72-3.86-3.85s-3.85-1.73-3.85-3.86a3.85,3.85,0,0,1,3.85-3.85" transform="translate(-267.95 -268.66)"/></svg>