<svg width="74" height="104" fill="none" xmlns="http://www.w3.org/2000/svg"><path d="M72.173 85.036v18.046H1.71V83.318c0-5.252.764-9.74 2.291-13.463 1.624-3.723 3.867-6.874 6.732-9.452 2.96-2.578 6.492-4.678 10.598-6.302 4.105-1.718 8.736-3.15 13.892-4.296 3.819-.86 6.922-1.814 9.309-2.864 2.482-1.146 4.44-2.387 5.872-3.724 1.432-1.432 2.387-2.96 2.864-4.583.573-1.719.86-3.628.86-5.729 0-4.01-1.48-7.352-4.44-10.025-2.865-2.673-6.875-4.01-12.03-4.01-5.443 0-9.787 1.67-13.033 5.013-3.247 3.246-4.87 7.781-4.87 13.605v6.302H.851v-8.02c0-4.679.811-9.119 2.434-13.32 1.719-4.296 4.106-8.02 7.161-11.17 3.151-3.247 6.97-5.777 11.458-7.59C26.39 1.78 31.45.824 37.084.824c6.016 0 11.267.907 15.754 2.72 4.488 1.72 8.212 4.011 11.171 6.875 3.056 2.865 5.3 6.206 6.731 10.025a30.279 30.279 0 012.292 11.601v1.719c0 8.402-2.387 15.372-7.16 20.91-4.68 5.537-12.365 9.547-23.059 12.03-4.487 1.05-8.21 2.148-11.17 3.294-2.865 1.05-5.109 2.243-6.732 3.58-1.623 1.337-2.769 2.817-3.437 4.44-.573 1.527-.86 3.294-.86 5.299v1.718h51.559z" fill="#CC2727"/></svg>