<svg width="74" height="104" viewBox="0 0 74 104" fill="none" xmlns="http://www.w3.org/2000/svg">
<path d="M72.1726 85.0362V103.082H1.70999V83.3176C1.70999 78.0664 2.47383 73.5789 4.00148 69.8552C5.6246 66.1316 7.86837 62.9808 10.7327 60.4029C13.6925 57.825 17.2252 55.7245 21.3307 54.1014C25.4363 52.3828 30.0669 50.9506 35.2227 49.8049C39.0418 48.9456 42.1448 47.9908 44.5318 46.9406C47.0142 45.7949 48.9715 44.5536 50.4037 43.2169C51.8359 41.7848 52.7906 40.2571 53.268 38.634C53.8409 36.9154 54.1273 35.0058 54.1273 32.9053C54.1273 28.8952 52.6475 25.5535 49.6877 22.8801C46.8233 20.2068 42.8132 18.8701 37.6574 18.8701C32.2152 18.8701 27.8709 20.5409 24.6247 23.8827C21.3784 27.1289 19.7553 31.6641 19.7553 37.4883V43.7898H0.850708V35.7697C0.850708 31.0913 1.6623 26.6515 3.28542 22.4505C5.00402 18.154 7.39095 14.4304 10.4462 11.2796C13.597 8.03334 17.4161 5.5032 21.9036 3.68912C26.391 1.77957 31.4514 0.824768 37.0846 0.824768C43.0997 0.824768 48.351 1.73182 52.8384 3.54589C57.3259 5.26449 61.0495 7.55597 64.0093 10.4203C67.0646 13.2846 69.3084 16.6264 70.7405 20.4455C72.2682 24.1691 73.0319 28.036 73.0319 32.046V33.7646C73.0319 42.1667 70.645 49.1366 65.8711 54.6743C61.1927 60.212 53.5067 64.2221 42.8132 66.7045C38.3258 67.7547 34.6021 68.8527 31.6423 69.9985C28.778 71.0487 26.5342 72.2422 24.9111 73.5789C23.288 74.9156 22.1422 76.3955 21.4739 78.0186C20.901 79.5463 20.6146 81.3126 20.6146 83.3176V85.0362H72.1726Z" fill="#CC2727"/>
</svg>
