<svg width="75" height="106" viewBox="0 0 75 106" fill="none" xmlns="http://www.w3.org/2000/svg">
<path d="M0.179688 41.7848C0.179688 28.7998 3.42596 18.7269 9.91846 11.566C16.5064 4.40521 25.5768 0.824768 37.1296 0.824768C48.6825 0.824768 57.7052 4.40521 64.1977 11.566C70.7857 18.7269 74.0796 28.7998 74.0796 41.7848V64.1266C74.0796 77.4935 70.7857 87.6619 64.1977 94.6318C57.7052 101.602 48.6825 105.087 37.1296 105.087C25.5768 105.087 16.5064 101.602 9.91846 94.6318C3.42596 87.6619 0.179688 77.4935 0.179688 64.1266V41.7848ZM37.1296 87.9006C40.5668 87.9006 43.4312 87.3755 45.7227 86.3252C48.0141 85.1795 49.876 83.6041 51.3081 81.5991C52.7403 79.594 53.7428 77.2071 54.3157 74.4382C54.8886 71.6693 55.175 68.6141 55.175 65.2724V40.6391C55.175 37.4883 54.8408 34.5284 54.1725 31.7596C53.5041 28.9907 52.4539 26.6038 51.0217 24.5988C49.5895 22.5937 47.7277 21.0183 45.4362 19.8726C43.1447 18.6314 40.3759 18.0108 37.1296 18.0108C33.8834 18.0108 31.1145 18.6314 28.8231 19.8726C26.5316 21.0183 24.6698 22.5937 23.2377 24.5988C21.8055 26.6038 20.7553 28.9907 20.0869 31.7596C19.4186 34.5284 19.0844 37.4883 19.0844 40.6391V65.2724C19.0844 68.6141 19.3708 71.6693 19.9437 74.4382C20.5165 77.2071 21.5191 79.594 22.9512 81.5991C24.3834 83.6041 26.2452 85.1795 28.5367 86.3252C30.8282 87.3755 33.6924 87.9006 37.1296 87.9006Z" fill="#28780C"/>
</svg>
