<svg width="75" height="106" fill="none" xmlns="http://www.w3.org/2000/svg"><path d="M.18 41.785c0-12.985 3.246-23.058 9.738-30.219C16.506 4.406 25.577.825 37.13.825c11.552 0 20.575 3.58 27.068 10.741 6.588 7.16 9.882 17.234 9.882 30.219v22.342c0 13.367-3.294 23.535-9.882 30.505-6.493 6.97-15.515 10.455-27.068 10.455s-20.624-3.485-27.212-10.455C3.426 87.662.18 77.493.18 64.127V41.785zM37.13 87.9c3.437 0 6.301-.525 8.593-1.576 2.291-1.145 4.153-2.72 5.585-4.726 1.432-2.005 2.435-4.392 3.008-7.16.573-2.77.859-5.825.859-9.167V40.64c0-3.15-.334-6.11-1.002-8.88-.669-2.768-1.72-5.155-3.151-7.16-1.432-2.005-3.294-3.58-5.586-4.726-2.291-1.242-5.06-1.862-8.306-1.862-3.247 0-6.016.62-8.307 1.862-2.291 1.145-4.153 2.72-5.585 4.726-1.433 2.005-2.483 4.392-3.151 7.16-.668 2.77-1.003 5.73-1.003 8.88v24.633c0 3.342.287 6.397.86 9.166.573 2.77 1.575 5.156 3.007 7.161 1.432 2.005 3.294 3.58 5.586 4.726 2.291 1.05 5.155 1.576 8.593 1.576z" fill="#28780C"/></svg>