<svg width="443" height="29" viewBox="0 0 443 29" fill="none" xmlns="http://www.w3.org/2000/svg">
<path d="M4.21869 28.4481C3.56228 28.4481 2.94612 28.3585 2.36877 28.1795C1.77204 28.0199 1.28424 27.7722 0.906799 27.4336L1.65272 25.8224C2.26885 26.3595 3.08486 26.628 4.09932 26.628C4.93475 26.628 5.57176 26.3789 6.00887 25.8821C6.46687 25.3853 6.69511 24.6483 6.69511 23.6741V6.81633H8.81354V23.6741C8.81354 25.1466 8.41524 26.3102 7.62008 27.1651C6.82493 28.0199 5.69114 28.4481 4.21869 28.4481ZM7.76923 3.35524C7.33212 3.35524 6.96365 3.20603 6.66528 2.90766C6.36692 2.60929 6.21775 2.2513 6.21775 1.83358C6.21775 1.43526 6.36692 1.08764 6.66528 0.789271C6.96365 0.490902 7.33212 0.341736 7.76923 0.341736C8.20634 0.341736 8.57486 0.490902 8.87323 0.789271C9.17159 1.06825 9.32076 1.40539 9.32076 1.80371C9.32076 2.24082 9.17159 2.60929 8.87323 2.90766C8.57486 3.20603 8.20634 3.35524 7.76923 3.35524ZM28.3984 15.3198H15.2702C15.3896 16.9504 16.0162 18.2737 17.15 19.2881C18.2838 20.2832 19.7159 20.78 21.4464 20.78C22.4221 20.78 23.3172 20.6114 24.1318 20.2727C24.9478 19.9147 25.6534 19.397 26.2502 18.7212L27.4437 20.0937C26.7485 20.9292 25.8727 21.5662 24.818 22.0033C23.7842 22.4404 22.6399 22.6597 21.3868 22.6597C19.7756 22.6597 18.3434 22.3211 17.0903 21.6453C15.858 20.9486 14.8928 19.9938 14.1961 18.7809C13.5009 17.568 13.1518 16.1955 13.1518 14.6634C13.1518 13.1313 13.48 11.7588 14.1364 10.5459C14.8137 9.33307 15.7282 8.38721 16.8814 7.7114C18.0555 7.03559 19.3683 6.69696 20.8199 6.69696C22.2729 6.69696 23.5753 7.03559 24.7285 7.7114C25.8832 8.38721 26.7873 9.33307 27.4437 10.5459C28.1001 11.7394 28.4283 13.1119 28.4283 14.6634L28.3984 15.3198ZM20.8199 8.51701C19.3086 8.51701 18.0361 9.00486 17.0008 9.97903C15.9863 10.9338 15.4105 12.1869 15.2702 13.7385H26.3994C26.2606 12.1869 25.6743 10.9338 24.639 9.97903C23.6245 9.00486 22.352 8.51701 20.8199 8.51701ZM40.7374 6.69696C42.7067 6.69696 44.2671 7.27431 45.4218 8.4275C46.5944 9.5613 47.1822 11.2217 47.1822 13.4103V22.5105H45.0638V13.6191C45.0638 11.9885 44.655 10.7444 43.8405 9.88952C43.0244 9.0347 41.8608 8.60651 40.3496 8.60651C38.6578 8.60651 37.3152 9.11377 36.3216 10.1282C35.3459 11.1233 34.8596 12.5047 34.8596 14.2755V22.5105H32.7412V6.81633H34.7701V9.71051C35.3459 8.75573 36.1426 8.02024 37.157 7.50257C38.1909 6.9655 39.3843 6.69696 40.7374 6.69696ZM60.9296 6.69696C62.8988 6.69696 64.4592 7.27431 65.6139 8.4275C66.7865 9.5613 67.3743 11.2217 67.3743 13.4103V22.5105H65.2558V13.6191C65.2558 11.9885 64.8471 10.7444 64.0325 9.88952C63.2165 9.0347 62.0529 8.60651 60.5417 8.60651C58.8499 8.60651 57.5072 9.11377 56.5137 10.1282C55.538 11.1233 55.0517 12.5047 55.0517 14.2755V22.5105H52.9332V6.81633H54.9622V9.71051C55.538 8.75573 56.3346 8.02024 57.3491 7.50257C58.3829 6.9655 59.5765 6.69696 60.9296 6.69696ZM73.1253 6.81633H75.2437V22.5105H73.1253V6.81633ZM74.1994 3.38506C73.7623 3.38506 73.3938 3.2359 73.0955 2.93753C72.7971 2.63916 72.6479 2.28112 72.6479 1.8634C72.6479 1.46508 72.7971 1.11746 73.0955 0.819091C73.3938 0.520722 73.7623 0.371556 74.1994 0.371556C74.6365 0.371556 75.005 0.520722 75.3034 0.819091C75.6017 1.09807 75.751 1.43526 75.751 1.83358C75.751 2.27069 75.6017 2.63916 75.3034 2.93753C75.005 3.2359 74.6365 3.38506 74.1994 3.38506ZM94.8033 15.3198H81.6751C81.7944 16.9504 82.4209 18.2737 83.5547 19.2881C84.6885 20.2832 86.1207 20.78 87.8513 20.78C88.8254 20.78 89.7206 20.6114 90.5366 20.2727C91.3527 19.9147 92.0583 19.397 92.655 18.7212L93.8485 20.0937C93.1518 20.9292 92.2776 21.5662 91.2228 22.0033C90.189 22.4404 89.0448 22.6597 87.7916 22.6597C86.1804 22.6597 84.7483 22.3211 83.4951 21.6453C82.2614 20.9486 81.2976 19.9938 80.6009 18.7809C79.9042 17.568 79.5566 16.1955 79.5566 14.6634C79.5566 13.1313 79.8849 11.7588 80.5413 10.5459C81.2171 9.33307 82.133 8.38721 83.2862 7.7114C84.4603 7.03559 85.7731 6.69696 87.2247 6.69696C88.6763 6.69696 89.9801 7.03559 91.1333 7.7114C92.2865 8.38721 93.1921 9.33307 93.8485 10.5459C94.5049 11.7394 94.8331 13.1119 94.8331 14.6634L94.8033 15.3198ZM87.2247 8.51701C85.7135 8.51701 84.4394 9.00486 83.4056 9.97903C82.3911 10.9338 81.8138 12.1869 81.6751 13.7385H92.8042C92.6654 12.1869 92.0777 10.9338 91.0438 9.97903C90.0294 9.00486 88.7568 8.51701 87.2247 8.51701ZM111.161 22.6597C109.887 22.6597 108.664 22.4807 107.491 22.1226C106.337 21.7452 105.433 21.2767 104.776 20.7203L105.731 19.0494C106.387 19.5671 107.212 19.9938 108.207 20.3324C109.201 20.6502 110.236 20.8098 111.311 20.8098C112.743 20.8098 113.796 20.5905 114.473 20.1534C115.168 19.6954 115.518 19.0599 115.518 18.2439C115.518 17.6665 115.328 17.2189 114.951 16.9012C114.572 16.5625 114.094 16.3149 113.518 16.1552C112.941 15.9762 112.176 15.8076 111.221 15.648C109.947 15.4093 108.924 15.1707 108.148 14.932C107.372 14.6739 106.705 14.2457 106.149 13.649C105.612 13.0522 105.343 12.2272 105.343 11.1725C105.343 9.85967 105.889 8.78553 106.984 7.9501C108.078 7.11467 109.599 6.69696 111.549 6.69696C112.564 6.69696 113.578 6.8357 114.593 7.11467C115.607 7.37276 116.442 7.72187 117.099 8.15898L116.174 9.85966C114.881 8.96455 113.339 8.51701 111.549 8.51701C110.196 8.51701 109.171 8.75572 108.476 9.23311C107.799 9.7105 107.462 10.337 107.462 11.1128C107.462 11.7095 107.65 12.187 108.028 12.545C108.425 12.903 108.913 13.1715 109.49 13.3506C110.066 13.5102 110.863 13.6788 111.877 13.8578C113.131 14.0965 114.135 14.3352 114.891 14.5739C115.646 14.8126 116.293 15.2199 116.83 15.7972C117.367 16.3746 117.636 17.1697 117.636 18.1842C117.636 19.5567 117.059 20.6502 115.905 21.4662C114.772 22.2614 113.19 22.6597 111.161 22.6597ZM141.125 6.69696C143.094 6.69696 144.635 7.26388 145.75 8.39768C146.883 9.53148 147.45 11.2023 147.45 13.4103V22.5105H145.332V13.6191C145.332 11.9885 144.934 10.7444 144.138 9.88952C143.363 9.0347 142.259 8.60651 140.827 8.60651C139.196 8.60651 137.913 9.11377 136.978 10.1282C136.042 11.1233 135.575 12.5047 135.575 14.2755V22.5105H133.457V13.6191C133.457 11.9885 133.059 10.7444 132.263 9.88952C131.488 9.0347 130.373 8.60651 128.922 8.60651C127.311 8.60651 126.027 9.11377 125.073 10.1282C124.137 11.1233 123.67 12.5047 123.67 14.2755V22.5105H121.552V6.81633H123.581V9.68064C124.137 8.72586 124.913 7.99041 125.908 7.47275C126.903 6.95508 128.046 6.69696 129.339 6.69696C130.652 6.69696 131.786 6.97593 132.741 7.53239C133.715 8.08884 134.442 8.91533 134.919 10.0089C135.496 8.975 136.321 8.16942 137.395 7.59207C138.489 6.99534 139.733 6.69696 141.125 6.69696ZM159.669 22.6597C158.157 22.6597 156.794 22.3211 155.581 21.6453C154.368 20.9486 153.413 19.9938 152.717 18.7809C152.02 17.568 151.672 16.1955 151.672 14.6634C151.672 13.1313 152.02 11.7588 152.717 10.5459C153.413 9.33307 154.368 8.38721 155.581 7.7114C156.794 7.03559 158.157 6.69696 159.669 6.69696C161.18 6.69696 162.543 7.03559 163.756 7.7114C164.969 8.38721 165.915 9.33307 166.591 10.5459C167.287 11.7588 167.635 13.1313 167.635 14.6634C167.635 16.1955 167.287 17.568 166.591 18.7809C165.915 19.9938 164.969 20.9486 163.756 21.6453C162.543 22.3211 161.18 22.6597 159.669 22.6597ZM159.669 20.78C160.783 20.78 161.776 20.5308 162.652 20.034C163.547 19.5164 164.244 18.7913 164.741 17.856C165.238 16.9206 165.487 15.8569 165.487 14.6634C165.487 13.4699 165.238 12.4063 164.741 11.4709C164.244 10.5355 163.547 9.8194 162.652 9.32262C161.776 8.80495 160.783 8.54687 159.669 8.54687C158.554 8.54687 157.55 8.80495 156.655 9.32262C155.779 9.8194 155.084 10.5355 154.566 11.4709C154.07 12.4063 153.821 13.4699 153.821 14.6634C153.821 15.8569 154.07 16.9206 154.566 17.856C155.084 18.7913 155.779 19.5164 156.655 20.034C157.55 20.5308 158.554 20.78 159.669 20.78ZM171.96 0.371556H174.078V22.5105H171.96V0.371556ZM184.179 22.6597C182.907 22.6597 181.684 22.4807 180.51 22.1226C179.356 21.7452 178.451 21.2767 177.794 20.7203L178.749 19.0494C179.406 19.5671 180.231 19.9938 181.226 20.3324C182.221 20.6502 183.255 20.8098 184.329 20.8098C185.761 20.8098 186.816 20.5905 187.491 20.1534C188.188 19.6954 188.536 19.0599 188.536 18.2439C188.536 17.6665 188.346 17.2189 187.969 16.9012C187.591 16.5625 187.114 16.3149 186.537 16.1552C185.959 15.9762 185.194 15.8076 184.239 15.648C182.967 15.4093 181.942 15.1707 181.166 14.932C180.39 14.6739 179.723 14.2457 179.167 13.649C178.63 13.0522 178.361 12.2272 178.361 11.1725C178.361 9.85967 178.909 8.78553 180.002 7.9501C181.096 7.11467 182.618 6.69696 184.567 6.69696C185.582 6.69696 186.596 6.8357 187.611 7.11467C188.625 7.37276 189.461 7.72187 190.117 8.15898L189.192 9.85966C187.899 8.96455 186.358 8.51701 184.567 8.51701C183.214 8.51701 182.191 8.75572 181.494 9.23311C180.818 9.7105 180.48 10.337 180.48 11.1128C180.48 11.7095 180.669 12.187 181.047 12.545C181.445 12.903 181.931 13.1715 182.509 13.3506C183.086 13.5102 183.881 13.6788 184.896 13.8578C186.149 14.0965 187.153 14.3352 187.909 14.5739C188.665 14.8126 189.311 15.2199 189.848 15.7972C190.385 16.3746 190.654 17.1697 190.654 18.1842C190.654 19.5567 190.077 20.6502 188.923 21.4662C187.79 22.2614 186.208 22.6597 184.179 22.6597ZM210.466 6.69696C211.937 6.69696 213.27 7.03559 214.464 7.7114C215.657 8.36781 216.591 9.3032 217.268 10.5161C217.944 11.7289 218.283 13.1119 218.283 14.6634C218.283 16.2149 217.944 17.5978 217.268 18.8107C216.591 20.0236 215.657 20.9695 214.464 21.6453C213.27 22.3211 211.937 22.6597 210.466 22.6597C209.153 22.6597 207.968 22.3807 206.915 21.8243C205.88 21.2678 205.044 20.4622 204.409 19.4075V22.5105H202.38V0.371556H204.498V9.80002C205.155 8.78556 205.99 8.02024 207.005 7.50257C208.038 6.9655 209.192 6.69696 210.466 6.69696ZM210.317 20.78C211.41 20.78 212.405 20.5308 213.3 20.034C214.195 19.5164 214.89 18.7913 215.389 17.856C215.905 16.9206 216.165 15.8569 216.165 14.6634C216.165 13.4699 215.905 12.4063 215.389 11.4709C214.89 10.5355 214.195 9.8194 213.3 9.32262C212.405 8.80495 211.41 8.54687 210.317 8.54687C209.202 8.54687 208.198 8.80495 207.303 9.32262C206.427 9.8194 205.731 10.5355 205.214 11.4709C204.716 12.4063 204.469 13.4699 204.469 14.6634C204.469 15.8569 204.716 16.9206 205.214 17.856C205.731 18.7913 206.427 19.5164 207.303 20.034C208.198 20.5308 209.202 20.78 210.317 20.78ZM222.6 6.81633H224.719V22.5105H222.6V6.81633ZM223.674 3.38506C223.237 3.38506 222.869 3.2359 222.571 2.93753C222.272 2.63916 222.123 2.28112 222.123 1.8634C222.123 1.46508 222.272 1.11746 222.571 0.819091C222.869 0.520722 223.237 0.371556 223.674 0.371556C224.113 0.371556 224.48 0.520722 224.778 0.819091C225.077 1.09807 225.226 1.43526 225.226 1.83358C225.226 2.27069 225.077 2.63916 224.778 2.93753C224.48 3.2359 224.113 3.38506 223.674 3.38506ZM237.028 22.6597C235.517 22.6597 234.155 22.3211 232.94 21.6453C231.727 20.9486 230.773 19.9938 230.076 18.7809C229.381 17.568 229.032 16.1955 229.032 14.6634C229.032 13.1313 229.381 11.7588 230.076 10.5459C230.773 9.33307 231.727 8.38721 232.94 7.7114C234.155 7.03559 235.517 6.69696 237.028 6.69696C238.541 6.69696 239.903 7.03559 241.116 7.7114C242.33 8.38721 243.274 9.33307 243.95 10.5459C244.647 11.7588 244.994 13.1313 244.994 14.6634C244.994 16.1955 244.647 17.568 243.95 18.7809C243.274 19.9938 242.33 20.9486 241.116 21.6453C239.903 22.3211 238.541 22.6597 237.028 22.6597ZM237.028 20.78C238.142 20.78 239.137 20.5308 240.012 20.034C240.907 19.5164 241.603 18.7913 242.1 17.856C242.598 16.9206 242.846 15.8569 242.846 14.6634C242.846 13.4699 242.598 12.4063 242.1 11.4709C241.603 10.5355 240.907 9.8194 240.012 9.32262C239.137 8.80495 238.142 8.54687 237.028 8.54687C235.915 8.54687 234.91 8.80495 234.014 9.32262C233.14 9.8194 232.444 10.5355 231.926 11.4709C231.429 12.4063 231.18 13.4699 231.18 14.6634C231.18 15.8569 231.429 16.9206 231.926 17.856C232.444 18.7913 233.14 19.5164 234.014 20.034C234.91 20.5308 235.915 20.78 237.028 20.78ZM257.584 21.5557C257.187 21.9137 256.689 22.1928 256.092 22.3912C255.516 22.5702 254.909 22.6597 254.272 22.6597C252.801 22.6597 251.667 22.2614 250.871 21.4662C250.076 20.671 249.677 19.5462 249.677 18.0947V8.60651H246.873V6.81633H249.677V3.38506H251.796V6.81633H256.57V8.60651H251.796V17.9753C251.796 18.9107 252.025 19.6268 252.482 20.1235C252.959 20.6009 253.637 20.8396 254.511 20.8396C254.949 20.8396 255.367 20.7695 255.764 20.6308C256.182 20.492 256.54 20.2921 256.838 20.034L257.584 21.5557ZM274.552 15.3198H261.424C261.543 16.9504 262.17 18.2737 263.304 19.2881C264.438 20.2832 265.87 20.78 267.6 20.78C268.576 20.78 269.471 20.6114 270.286 20.2727C271.102 19.9147 271.807 19.397 272.404 18.7212L273.597 20.0937C272.902 20.9292 272.027 21.5662 270.972 22.0033C269.938 22.4404 268.794 22.6597 267.541 22.6597C265.929 22.6597 264.497 22.3211 263.244 21.6453C262.012 20.9486 261.047 19.9938 260.35 18.7809C259.655 17.568 259.306 16.1955 259.306 14.6634C259.306 13.1313 259.634 11.7588 260.29 10.5459C260.967 9.33307 261.882 8.38721 263.035 7.7114C264.209 7.03559 265.522 6.69696 266.974 6.69696C268.427 6.69696 269.729 7.03559 270.882 7.7114C272.037 8.38721 272.941 9.33307 273.597 10.5459C274.254 11.7394 274.582 13.1119 274.582 14.6634L274.552 15.3198ZM266.974 8.51701C265.462 8.51701 264.19 9.00486 263.155 9.97903C262.14 10.9338 261.564 12.1869 261.424 13.7385H272.553C272.414 12.1869 271.828 10.9338 270.793 9.97903C269.778 9.00486 268.506 8.51701 266.974 8.51701ZM285.399 22.6597C283.848 22.6597 282.454 22.3211 281.222 21.6453C280.008 20.9695 279.053 20.0236 278.358 18.8107C277.661 17.577 277.314 16.1955 277.314 14.6634C277.314 13.1313 277.661 11.7588 278.358 10.5459C279.053 9.33307 280.008 8.38721 281.222 7.7114C282.454 7.03559 283.848 6.69696 285.399 6.69696C286.751 6.69696 287.955 6.9655 289.01 7.50257C290.084 8.02024 290.928 8.78556 291.546 9.80002L289.964 10.8741C289.447 10.0984 288.79 9.52104 287.995 9.1436C287.199 8.74528 286.333 8.54687 285.399 8.54687C284.266 8.54687 283.241 8.80495 282.326 9.32262C281.431 9.8194 280.724 10.5355 280.208 11.4709C279.71 12.4063 279.462 13.4699 279.462 14.6634C279.462 15.8763 279.71 16.9504 280.208 17.8858C280.724 18.8003 281.431 19.5164 282.326 20.034C283.241 20.5308 284.266 20.78 285.399 20.78C286.333 20.78 287.199 20.5905 287.995 20.2131C288.79 19.8356 289.447 19.2583 289.964 18.4825L291.546 19.5566C290.928 20.5711 290.084 21.3468 289.01 21.8839C287.935 22.4016 286.732 22.6597 285.399 22.6597ZM303.47 6.69696C305.439 6.69696 307.001 7.27431 308.154 8.4275C309.328 9.5613 309.915 11.2217 309.915 13.4103V22.5105H307.796V13.6191C307.796 11.9885 307.389 10.7444 306.573 9.88952C305.757 9.0347 304.593 8.60651 303.082 8.60651C301.392 8.60651 300.049 9.11377 299.054 10.1282C298.08 11.1233 297.592 12.5047 297.592 14.2755V22.5105H295.474V0.371556H297.592V9.56132C298.17 8.64682 298.965 7.93966 299.979 7.44288C300.994 6.9461 302.157 6.69696 303.47 6.69696ZM331.56 6.69696C333.032 6.69696 334.365 7.03559 335.558 7.7114C336.752 8.36781 337.687 9.3032 338.363 10.5161C339.04 11.7289 339.377 13.1119 339.377 14.6634C339.377 16.2149 339.04 17.5978 338.363 18.8107C337.687 20.0236 336.752 20.9695 335.558 21.6453C334.365 22.3211 333.032 22.6597 331.56 22.6597C330.247 22.6597 329.064 22.3807 328.009 21.8243C326.976 21.2678 326.14 20.4622 325.503 19.4075V22.5105H323.474V0.371556H325.593V9.80002C326.249 8.78556 327.084 8.02024 328.099 7.50257C329.134 6.9655 330.287 6.69696 331.56 6.69696ZM331.411 20.78C332.506 20.78 333.499 20.5308 334.395 20.034C335.29 19.5164 335.986 18.7913 336.483 17.856C337.001 16.9206 337.259 15.8569 337.259 14.6634C337.259 13.4699 337.001 12.4063 336.483 11.4709C335.986 10.5355 335.29 9.8194 334.395 9.32262C333.499 8.80495 332.506 8.54687 331.411 8.54687C330.298 8.54687 329.292 8.80495 328.397 9.32262C327.523 9.8194 326.826 10.5355 326.309 11.4709C325.812 12.4063 325.563 13.4699 325.563 14.6634C325.563 15.8569 325.812 16.9206 326.309 17.856C326.826 18.7913 327.523 19.5164 328.397 20.034C329.292 20.5308 330.298 20.78 331.411 20.78ZM357.839 6.81633V22.5105H355.81V19.6461C355.253 20.6009 354.487 21.3468 353.512 21.8839C352.538 22.4016 351.424 22.6597 350.171 22.6597C348.122 22.6597 346.501 22.0928 345.307 20.959C344.133 19.8058 343.547 18.1245 343.547 15.9165V6.81633H345.665V15.7077C345.665 17.3592 346.073 18.6123 346.889 19.4671C347.705 20.322 348.868 20.7501 350.38 20.7501C352.031 20.7501 353.333 20.2534 354.288 19.2583C355.243 18.2438 355.72 16.8415 355.72 15.0513V6.81633H357.839ZM363.772 6.81633H365.89V22.5105H363.772V6.81633ZM364.846 3.38506C364.409 3.38506 364.04 3.2359 363.742 2.93753C363.444 2.63916 363.294 2.28112 363.294 1.8634C363.294 1.46508 363.444 1.11746 363.742 0.819091C364.04 0.520722 364.409 0.371556 364.846 0.371556C365.283 0.371556 365.652 0.520722 365.95 0.819091C366.248 1.09807 366.397 1.43526 366.397 1.83358C366.397 2.27069 366.248 2.63916 365.95 2.93753C365.652 3.2359 365.283 3.38506 364.846 3.38506ZM371.784 0.371556H373.903V22.5105H371.784V0.371556ZM394.119 0.371556V22.5105H392.09V19.4075C391.454 20.4622 390.609 21.2678 389.554 21.8243C388.52 22.3807 387.346 22.6597 386.033 22.6597C384.562 22.6597 383.228 22.3211 382.035 21.6453C380.841 20.9695 379.908 20.0236 379.23 18.8107C378.554 17.5978 378.216 16.2149 378.216 14.6634C378.216 13.1119 378.554 11.7289 379.23 10.5161C379.908 9.3032 380.841 8.36781 382.035 7.7114C383.228 7.03559 384.562 6.69696 386.033 6.69696C387.307 6.69696 388.45 6.9655 389.464 7.50257C390.5 8.02024 391.344 8.78556 392 9.80002V0.371556H394.119ZM386.212 20.78C387.307 20.78 388.292 20.5308 389.166 20.034C390.061 19.5164 390.758 18.7913 391.254 17.856C391.772 16.9206 392.03 15.8569 392.03 14.6634C392.03 13.4699 391.772 12.4063 391.254 11.4709C390.758 10.5355 390.061 9.8194 389.166 9.32262C388.292 8.80495 387.307 8.54687 386.212 8.54687C385.099 8.54687 384.094 8.80495 383.199 9.32262C382.324 9.8194 381.628 10.5355 381.11 11.4709C380.613 12.4063 380.364 13.4699 380.364 14.6634C380.364 15.8569 380.613 16.9206 381.11 17.856C381.628 18.7913 382.324 19.5164 383.199 20.034C384.094 20.5308 385.099 20.78 386.212 20.78ZM400.019 6.81633H402.138V22.5105H400.019V6.81633ZM401.093 3.38506C400.656 3.38506 400.288 3.2359 399.989 2.93753C399.691 2.63916 399.542 2.28112 399.542 1.8634C399.542 1.46508 399.691 1.11746 399.989 0.819091C400.288 0.520722 400.656 0.371556 401.093 0.371556C401.53 0.371556 401.899 0.520722 402.197 0.819091C402.496 1.09807 402.645 1.43526 402.645 1.83358C402.645 2.27069 402.496 2.63916 402.197 2.93753C401.899 3.2359 401.53 3.38506 401.093 3.38506ZM416.028 6.69696C417.997 6.69696 419.559 7.27431 420.712 8.4275C421.886 9.5613 422.473 11.2217 422.473 13.4103V22.5105H420.354V13.6191C420.354 11.9885 419.947 10.7444 419.131 9.88952C418.315 9.0347 417.151 8.60651 415.64 8.60651C413.95 8.60651 412.607 9.11377 411.612 10.1282C410.638 11.1233 410.15 12.5047 410.15 14.2755V22.5105H408.032V6.81633H410.061V9.71051C410.638 8.75573 411.433 8.02024 412.448 7.50257C413.481 6.9655 414.675 6.69696 416.028 6.69696ZM442.812 6.81633V20.6009C442.812 23.2669 442.156 25.2361 440.843 26.5086C439.551 27.8021 437.591 28.4481 434.965 28.4481C433.514 28.4481 432.131 28.2288 430.818 27.7916C429.526 27.3739 428.471 26.7876 427.655 26.0312L428.729 24.4201C429.486 25.0959 430.4 25.624 431.475 26.0014C432.57 26.3789 433.712 26.5683 434.906 26.5683C436.896 26.5683 438.358 26.1014 439.292 25.166C440.227 24.2515 440.694 22.8193 440.694 20.8695V18.8704C440.038 19.8655 439.172 20.6203 438.098 21.138C437.045 21.6557 435.871 21.9138 434.578 21.9138C433.107 21.9138 431.764 21.596 430.55 20.959C429.356 20.3026 428.412 19.3971 427.715 18.2439C427.039 17.0698 426.701 15.748 426.701 14.2755C426.701 12.8031 427.039 11.4903 427.715 10.3371C428.412 9.18386 429.356 8.28878 430.55 7.65176C431.743 7.01474 433.086 6.69696 434.578 6.69696C435.911 6.69696 437.114 6.9655 438.188 7.50257C439.262 8.03963 440.127 8.81538 440.784 9.82984V6.81633H442.812ZM434.786 20.034C435.92 20.034 436.945 19.7953 437.86 19.3179C438.776 18.8212 439.481 18.1349 439.978 17.2592C440.496 16.3835 440.754 15.39 440.754 14.2755C440.754 13.1611 440.496 12.1765 439.978 11.3217C439.481 10.446 438.776 9.77019 437.86 9.2928C436.964 8.79601 435.941 8.54687 434.786 8.54687C433.653 8.54687 432.629 8.78554 431.713 9.26293C430.818 9.74032 430.112 10.4161 429.595 11.2919C429.098 12.1676 428.849 13.1611 428.849 14.2755C428.849 15.39 429.098 16.3835 429.595 17.2592C430.112 18.1349 430.818 18.8212 431.713 19.3179C432.629 19.7953 433.653 20.034 434.786 20.034Z" fill="black"/>
</svg>
