<svg width="443" height="29" fill="none" xmlns="http://www.w3.org/2000/svg"><path d="M4.219 28.448c-.657 0-1.273-.09-1.85-.268-.597-.16-1.085-.408-1.462-.746l.746-1.612c.616.538 1.432.806 2.446.806.836 0 1.473-.25 1.91-.746.458-.497.686-1.234.686-2.208V6.816h2.119v16.858c0 1.473-.399 2.636-1.194 3.491-.795.855-1.929 1.283-3.401 1.283zm3.55-25.093a1.5 1.5 0 01-1.104-.447 1.465 1.465 0 01-.447-1.074c0-.399.149-.746.447-1.045A1.5 1.5 0 017.77.342a1.5 1.5 0 011.104.447c.299.28.448.616.448 1.015a1.5 1.5 0 01-.448 1.104 1.5 1.5 0 01-1.104.447zM28.4 15.32H15.27c.12 1.63.746 2.954 1.88 3.968 1.134.995 2.566 1.492 4.296 1.492.976 0 1.871-.169 2.686-.507a6.028 6.028 0 002.118-1.552l1.194 1.373a6.683 6.683 0 01-2.626 1.91c-1.034.436-2.178.656-3.431.656-1.611 0-3.044-.339-4.297-1.015a7.572 7.572 0 01-2.894-2.864c-.695-1.213-1.044-2.585-1.044-4.118 0-1.532.328-2.904.984-4.117.678-1.213 1.592-2.159 2.745-2.835 1.174-.675 2.487-1.014 3.939-1.014 1.453 0 2.755.339 3.909 1.014 1.154.676 2.058 1.622 2.715 2.835.656 1.193.984 2.566.984 4.117l-.03.657zm-7.58-6.803c-1.51 0-2.783.488-3.818 1.462-1.015.955-1.59 2.208-1.73 3.76h11.128c-.138-1.552-.725-2.805-1.76-3.76-1.014-.974-2.287-1.462-3.82-1.462zm19.918-1.82c1.97 0 3.53.577 4.685 1.73 1.172 1.134 1.76 2.795 1.76 4.983v9.1h-2.118v-8.89c0-1.631-.409-2.876-1.224-3.73-.816-.855-1.98-1.283-3.49-1.283-1.692 0-3.035.507-4.028 1.521-.976.995-1.462 2.377-1.462 4.147v8.236H32.74V6.816h2.03v2.895a5.812 5.812 0 012.386-2.208c1.034-.538 2.227-.806 3.58-.806zm20.193 0c1.969 0 3.53.577 4.684 1.73 1.172 1.134 1.76 2.795 1.76 4.983v9.1h-2.118v-8.89c0-1.631-.409-2.876-1.224-3.73-.815-.855-1.98-1.283-3.49-1.283-1.692 0-3.035.507-4.028 1.521-.976.995-1.462 2.377-1.462 4.147v8.236h-2.119V6.816h2.03v2.895a5.811 5.811 0 012.386-2.208c1.034-.538 2.228-.806 3.58-.806zm12.195.12h2.119V22.51h-2.119V6.816zM74.2 3.384a1.5 1.5 0 01-1.103-.447 1.465 1.465 0 01-.448-1.075c0-.398.15-.746.448-1.044a1.5 1.5 0 011.103-.447 1.5 1.5 0 011.104.447c.299.28.448.616.448 1.015 0 .437-.15.805-.448 1.104a1.5 1.5 0 01-1.104.447zM94.803 15.32H81.675c.12 1.63.746 2.954 1.88 3.968 1.133.995 2.566 1.492 4.296 1.492.974 0 1.87-.169 2.686-.507a6.026 6.026 0 002.118-1.552l1.194 1.373a6.693 6.693 0 01-2.626 1.91c-1.034.436-2.178.656-3.431.656-1.612 0-3.044-.339-4.297-1.015a7.562 7.562 0 01-2.894-2.864c-.697-1.213-1.044-2.585-1.044-4.118 0-1.532.328-2.904.984-4.117.676-1.213 1.592-2.159 2.745-2.835 1.174-.675 2.487-1.014 3.939-1.014 1.451 0 2.755.339 3.908 1.014 1.154.676 2.06 1.622 2.716 2.835.656 1.193.984 2.566.984 4.117l-.03.657zm-7.578-6.803c-1.511 0-2.786.488-3.82 1.462-1.014.955-1.591 2.208-1.73 3.76h11.13c-.14-1.552-.727-2.805-1.761-3.76-1.015-.974-2.287-1.462-3.82-1.462zM111.16 22.66c-1.274 0-2.497-.18-3.67-.537-1.154-.378-2.058-.846-2.715-1.403l.955-1.67c.656.517 1.481.944 2.476 1.282.994.318 2.029.478 3.104.478 1.432 0 2.485-.22 3.162-.657.695-.458 1.045-1.093 1.045-1.91 0-.576-.19-1.024-.567-1.342-.379-.338-.857-.586-1.433-.746-.577-.179-1.342-.347-2.297-.507-1.274-.239-2.297-.477-3.073-.716a4.733 4.733 0 01-1.999-1.283c-.537-.597-.806-1.422-.806-2.476 0-1.313.546-2.387 1.641-3.223 1.094-.835 2.615-1.253 4.565-1.253 1.015 0 2.029.139 3.044.418 1.014.258 1.849.607 2.506 1.044l-.925 1.7c-1.293-.894-2.835-1.342-4.625-1.342-1.353 0-2.378.239-3.073.716-.677.477-1.014 1.104-1.014 1.88 0 .597.188 1.074.566 1.432.397.358.885.627 1.462.806.576.16 1.373.328 2.387.507 1.254.239 2.258.477 3.014.716a4.426 4.426 0 011.939 1.223c.537.578.806 1.373.806 2.387 0 1.373-.577 2.466-1.731 3.282-1.133.795-2.715 1.194-4.744 1.194zm29.964-15.963c1.969 0 3.51.567 4.625 1.7 1.133 1.134 1.7 2.805 1.7 5.013v9.1h-2.118v-8.89c0-1.631-.398-2.876-1.194-3.73-.775-.855-1.879-1.283-3.311-1.283-1.631 0-2.914.507-3.849 1.521-.936.995-1.403 2.377-1.403 4.147v8.236h-2.118v-8.892c0-1.63-.398-2.875-1.194-3.73-.775-.854-1.89-1.282-3.341-1.282-1.611 0-2.895.507-3.849 1.521-.936.995-1.403 2.377-1.403 4.147v8.236h-2.118V6.816h2.029v2.865a5.655 5.655 0 012.327-2.208c.995-.518 2.138-.776 3.431-.776 1.313 0 2.447.279 3.402.835.974.557 1.701 1.383 2.178 2.477a6.048 6.048 0 012.476-2.417c1.094-.597 2.338-.895 3.73-.895zm18.544 15.963c-1.512 0-2.875-.339-4.088-1.015a7.623 7.623 0 01-2.864-2.864c-.697-1.213-1.045-2.585-1.045-4.118 0-1.532.348-2.904 1.045-4.117a7.401 7.401 0 012.864-2.835c1.213-.675 2.576-1.014 4.088-1.014 1.511 0 2.874.339 4.087 1.014a7.196 7.196 0 012.835 2.835c.696 1.213 1.044 2.585 1.044 4.117s-.348 2.905-1.044 4.118a7.409 7.409 0 01-2.835 2.864c-1.213.676-2.576 1.015-4.087 1.015zm0-1.88c1.114 0 2.107-.25 2.983-.746a5.375 5.375 0 002.089-2.178c.497-.935.746-2 .746-3.193s-.249-2.257-.746-3.192a5.174 5.174 0 00-2.089-2.148c-.876-.518-1.869-.776-2.983-.776-1.115 0-2.119.258-3.014.776-.876.496-1.571 1.213-2.089 2.148-.496.935-.745 1.999-.745 3.192 0 1.194.249 2.258.745 3.193.518.935 1.213 1.66 2.089 2.178.895.497 1.899.746 3.014.746zM171.96.372h2.118V22.51h-2.118V.37zm12.219 22.288c-1.272 0-2.495-.18-3.669-.537-1.154-.378-2.059-.846-2.716-1.403l.955-1.67c.657.517 1.482.944 2.477 1.282.995.318 2.029.478 3.103.478 1.432 0 2.487-.22 3.162-.657.697-.458 1.045-1.093 1.045-1.91 0-.576-.19-1.024-.567-1.342-.378-.338-.855-.586-1.432-.746-.578-.179-1.343-.347-2.298-.507-1.272-.239-2.297-.477-3.073-.716a4.733 4.733 0 01-1.999-1.283c-.537-.597-.806-1.422-.806-2.476 0-1.313.548-2.387 1.641-3.223 1.094-.835 2.616-1.253 4.565-1.253 1.015 0 2.029.139 3.044.418 1.014.258 1.85.607 2.506 1.044l-.925 1.7c-1.293-.894-2.834-1.342-4.625-1.342-1.353 0-2.376.239-3.073.716-.676.477-1.014 1.104-1.014 1.88 0 .597.189 1.074.567 1.432.398.358.884.627 1.462.806.577.16 1.372.328 2.387.507 1.253.239 2.257.477 3.013.716a4.42 4.42 0 011.939 1.223c.537.578.806 1.373.806 2.387 0 1.373-.577 2.466-1.731 3.282-1.133.795-2.715 1.194-4.744 1.194zm26.287-15.963c1.471 0 2.804.339 3.998 1.014a7.055 7.055 0 012.804 2.805c.676 1.213 1.015 2.596 1.015 4.147 0 1.552-.339 2.935-1.015 4.148a7.257 7.257 0 01-2.804 2.834c-1.194.676-2.527 1.015-3.998 1.015-1.313 0-2.498-.28-3.551-.836-1.035-.556-1.871-1.362-2.506-2.417v3.104h-2.029V.37h2.118V9.8c.657-1.014 1.492-1.78 2.507-2.297 1.033-.538 2.187-.806 3.461-.806zm-.149 14.083c1.093 0 2.088-.25 2.983-.746a5.388 5.388 0 002.089-2.178c.516-.935.776-2 .776-3.193s-.26-2.257-.776-3.192c-.499-.935-1.194-1.652-2.089-2.148-.895-.518-1.89-.776-2.983-.776-1.115 0-2.119.258-3.014.776-.876.496-1.572 1.213-2.089 2.148-.498.935-.745 1.999-.745 3.192 0 1.194.247 2.258.745 3.193.517.935 1.213 1.66 2.089 2.178.895.497 1.899.746 3.014.746zM222.6 6.816h2.119v15.695H222.6V6.816zm1.074-3.43c-.437 0-.805-.15-1.103-.448a1.463 1.463 0 01-.448-1.075c0-.398.149-.746.448-1.044a1.498 1.498 0 011.103-.447c.439 0 .806.149 1.104.447.299.28.448.616.448 1.015 0 .437-.149.805-.448 1.104a1.497 1.497 0 01-1.104.447zm13.354 19.274c-1.511 0-2.873-.339-4.088-1.015a7.63 7.63 0 01-2.864-2.864c-.695-1.213-1.044-2.585-1.044-4.118 0-1.532.349-2.904 1.044-4.117a7.408 7.408 0 012.864-2.835c1.215-.675 2.577-1.014 4.088-1.014 1.513 0 2.875.339 4.088 1.014a7.188 7.188 0 012.834 2.835c.697 1.213 1.044 2.585 1.044 4.117s-.347 2.905-1.044 4.118a7.4 7.4 0 01-2.834 2.864c-1.213.676-2.575 1.015-4.088 1.015zm0-1.88c1.114 0 2.109-.25 2.984-.746a5.373 5.373 0 002.088-2.178c.498-.935.746-2 .746-3.193s-.248-2.257-.746-3.192a5.171 5.171 0 00-2.088-2.148c-.875-.518-1.87-.776-2.984-.776-1.113 0-2.118.258-3.014.776-.874.496-1.57 1.213-2.088 2.148-.497.935-.746 1.999-.746 3.192 0 1.194.249 2.258.746 3.193.518.935 1.214 1.66 2.088 2.178.896.497 1.901.746 3.014.746zm20.556.776c-.397.358-.895.637-1.492.835a6.1 6.1 0 01-1.82.269c-1.471 0-2.605-.399-3.401-1.194-.795-.795-1.194-1.92-1.194-3.371V8.607h-2.804v-1.79h2.804V3.384h2.119v3.431h4.774v1.79h-4.774v9.37c0 .935.229 1.65.686 2.148.477.477 1.155.716 2.029.716.438 0 .856-.07 1.253-.21a3.123 3.123 0 001.074-.596l.746 1.522zm16.968-6.236h-13.128c.119 1.63.746 2.954 1.88 3.968 1.134.995 2.566 1.492 4.296 1.492.976 0 1.871-.169 2.686-.507a6.028 6.028 0 002.118-1.552l1.193 1.373a6.677 6.677 0 01-2.625 1.91c-1.034.436-2.178.656-3.431.656-1.612 0-3.044-.339-4.297-1.015a7.575 7.575 0 01-2.894-2.864c-.695-1.213-1.044-2.585-1.044-4.118 0-1.532.328-2.904.984-4.117.677-1.213 1.592-2.159 2.745-2.835 1.174-.675 2.487-1.014 3.939-1.014 1.453 0 2.755.339 3.908 1.014 1.155.676 2.059 1.622 2.715 2.835.657 1.193.985 2.566.985 4.117l-.03.657zm-7.578-6.803c-1.512 0-2.784.488-3.819 1.462-1.015.955-1.591 2.208-1.731 3.76h11.129c-.139-1.552-.725-2.805-1.76-3.76-1.015-.974-2.287-1.462-3.819-1.462zm18.425 14.143c-1.551 0-2.945-.339-4.177-1.015a7.387 7.387 0 01-2.864-2.834c-.697-1.234-1.044-2.616-1.044-4.148 0-1.532.347-2.904 1.044-4.117a7.388 7.388 0 012.864-2.835c1.232-.675 2.626-1.014 4.177-1.014 1.352 0 2.556.268 3.611.806a5.915 5.915 0 012.536 2.297l-1.582 1.074c-.517-.776-1.174-1.353-1.969-1.73a5.72 5.72 0 00-2.596-.597c-1.133 0-2.158.258-3.073.776-.895.496-1.602 1.213-2.118 2.148-.498.935-.746 1.999-.746 3.192 0 1.213.248 2.287.746 3.223a5.633 5.633 0 002.118 2.148c.915.497 1.94.746 3.073.746.934 0 1.8-.19 2.596-.567.795-.377 1.452-.955 1.969-1.73l1.582 1.074a6.107 6.107 0 01-2.536 2.327c-1.075.518-2.278.776-3.611.776zM303.47 6.697c1.969 0 3.531.577 4.684 1.73 1.174 1.134 1.761 2.795 1.761 4.983v9.1h-2.119v-8.89c0-1.631-.407-2.876-1.223-3.73-.816-.855-1.98-1.283-3.491-1.283-1.69 0-3.033.507-4.028 1.521-.974.995-1.462 2.377-1.462 4.147v8.236h-2.118V.37h2.118v9.19c.578-.914 1.373-1.621 2.387-2.118 1.015-.497 2.178-.746 3.491-.746zm28.09 0c1.472 0 2.805.339 3.998 1.014a7.045 7.045 0 012.805 2.805c.677 1.213 1.014 2.596 1.014 4.147 0 1.552-.337 2.935-1.014 4.148a7.246 7.246 0 01-2.805 2.834c-1.193.676-2.526 1.015-3.998 1.015-1.313 0-2.496-.28-3.551-.836-1.033-.556-1.869-1.362-2.506-2.417v3.104h-2.029V.37h2.119V9.8c.656-1.014 1.491-1.78 2.506-2.297 1.035-.538 2.188-.806 3.461-.806zm-.149 14.083c1.095 0 2.088-.25 2.984-.746a5.373 5.373 0 002.088-2.178c.518-.935.776-2 .776-3.193s-.258-2.257-.776-3.192a5.171 5.171 0 00-2.088-2.148c-.896-.518-1.889-.776-2.984-.776-1.113 0-2.119.258-3.014.776-.874.496-1.571 1.213-2.088 2.148-.497.935-.746 1.999-.746 3.192 0 1.194.249 2.258.746 3.193.517.935 1.214 1.66 2.088 2.178.895.497 1.901.746 3.014.746zm26.428-13.964v15.695h-2.029v-2.865a5.915 5.915 0 01-2.298 2.238c-.974.518-2.088.776-3.341.776-2.049 0-3.67-.567-4.864-1.701-1.174-1.153-1.76-2.834-1.76-5.043v-9.1h2.118v8.892c0 1.651.408 2.904 1.224 3.76.816.854 1.979 1.282 3.491 1.282 1.651 0 2.953-.497 3.908-1.492.955-1.014 1.432-2.416 1.432-4.207V6.816h2.119zm5.933 0h2.118V22.51h-2.118V6.816zm1.074-3.43a1.5 1.5 0 01-1.104-.448 1.467 1.467 0 01-.448-1.075c0-.398.15-.746.448-1.044a1.5 1.5 0 011.104-.447 1.5 1.5 0 011.104.447c.298.28.447.616.447 1.015 0 .437-.149.805-.447 1.104a1.5 1.5 0 01-1.104.447zm6.938-3.014h2.119V22.51h-2.119V.37zm22.335 0V22.51h-2.029v-3.104a6.418 6.418 0 01-2.536 2.417c-1.034.557-2.208.836-3.521.836-1.471 0-2.805-.339-3.998-1.015a7.26 7.26 0 01-2.805-2.834c-.676-1.213-1.014-2.596-1.014-4.148 0-1.551.338-2.934 1.014-4.147a7.058 7.058 0 012.805-2.805c1.193-.675 2.527-1.014 3.998-1.014 1.274 0 2.417.268 3.431.806 1.036.517 1.88 1.283 2.536 2.297V.372h2.119zm-7.907 20.408c1.095 0 2.08-.25 2.954-.746a5.366 5.366 0 002.088-2.178c.518-.935.776-2 .776-3.193s-.258-2.257-.776-3.192a5.165 5.165 0 00-2.088-2.148c-.874-.518-1.859-.776-2.954-.776-1.113 0-2.118.258-3.013.776-.875.496-1.571 1.213-2.089 2.148-.497.935-.746 1.999-.746 3.192 0 1.194.249 2.258.746 3.193.518.935 1.214 1.66 2.089 2.178.895.497 1.9.746 3.013.746zm13.807-13.964h2.119v15.695h-2.119V6.816zm1.074-3.43c-.437 0-.805-.15-1.104-.448a1.466 1.466 0 01-.447-1.075c0-.398.149-.746.447-1.044a1.502 1.502 0 011.104-.447 1.5 1.5 0 011.104.447c.299.28.448.616.448 1.015 0 .437-.149.805-.448 1.104a1.5 1.5 0 01-1.104.447zm14.935 3.311c1.969 0 3.531.577 4.684 1.73 1.174 1.134 1.761 2.795 1.761 4.983v9.1h-2.119v-8.89c0-1.631-.407-2.876-1.223-3.73-.816-.855-1.98-1.283-3.491-1.283-1.69 0-3.033.507-4.028 1.521-.974.995-1.462 2.377-1.462 4.147v8.236h-2.118V6.816h2.029v2.895a5.816 5.816 0 012.387-2.208c1.033-.538 2.227-.806 3.58-.806zm26.784.12V20.6c0 2.666-.656 4.635-1.969 5.908-1.292 1.293-3.252 1.94-5.878 1.94-1.451 0-2.834-.22-4.147-.657-1.292-.418-2.347-1.004-3.163-1.76l1.074-1.612c.757.676 1.671 1.204 2.746 1.581 1.095.378 2.237.567 3.431.567 1.99 0 3.452-.467 4.386-1.402.935-.915 1.402-2.347 1.402-4.297V18.87a6.36 6.36 0 01-2.596 2.268c-1.053.518-2.227.776-3.52.776-1.471 0-2.814-.318-4.028-.955a7.443 7.443 0 01-2.835-2.715c-.676-1.174-1.014-2.496-1.014-3.969 0-1.472.338-2.785 1.014-3.938a7.228 7.228 0 012.835-2.685c1.193-.637 2.536-.955 4.028-.955 1.333 0 2.536.268 3.61.806a6.511 6.511 0 012.596 2.327V6.816h2.028zm-8.026 13.217c1.134 0 2.159-.239 3.074-.716a5.263 5.263 0 002.118-2.059c.518-.875.776-1.869.776-2.984 0-1.114-.258-2.098-.776-2.953a5.074 5.074 0 00-2.118-2.03c-.896-.496-1.919-.745-3.074-.745-1.133 0-2.157.239-3.073.716a5.324 5.324 0 00-2.118 2.029c-.497.876-.746 1.87-.746 2.983 0 1.115.249 2.109.746 2.984a5.534 5.534 0 002.118 2.059c.916.477 1.94.716 3.073.716z" fill="#000"/></svg>