<svg width="495" height="96" fill="none" xmlns="http://www.w3.org/2000/svg"><path d="M.943 1.918h17.33v37.547h29.669V1.918h17.33v91.898h-17.33v-37.81h-29.67v37.81H.942V1.918zm133.423 72.206h-31.245l-4.464 19.692H80.54l21.924-91.898h32.558l21.924 91.898h-18.117l-4.463-19.692zm-27.569-16.542h23.762l-10.634-46.999h-2.363l-10.765 46.999zM204.642 79.9c3.325 0 6.039-.482 8.139-1.444 2.187-1.05 3.851-2.407 4.989-4.07 1.225-1.75 2.056-3.72 2.494-5.908.438-2.275.657-4.594.657-6.957v-2.364h17.329v2.364c0 10.94-2.888 19.386-8.664 25.337-5.69 5.864-14.004 8.796-24.944 8.796-10.503 0-18.818-3.194-24.944-9.584-6.127-6.39-9.189-15.71-9.189-27.963v-20.48c0-5.864.787-11.116 2.363-15.754 1.575-4.726 3.85-8.664 6.826-11.815 2.975-3.239 6.564-5.688 10.765-7.352C194.664.956 199.391.08 204.642.08c5.426 0 10.24.788 14.441 2.364 4.201 1.575 7.701 3.85 10.503 6.826 2.888 2.976 5.032 6.564 6.432 10.765 1.488 4.201 2.232 8.927 2.232 14.179v2.363h-17.329v-2.363a28.04 28.04 0 00-.788-6.564c-.525-2.189-1.401-4.158-2.625-5.908-1.227-1.75-2.889-3.15-4.989-4.201-2.101-1.138-4.726-1.707-7.877-1.707-2.888 0-5.383.569-7.483 1.707a14.322 14.322 0 00-5.251 4.464c-1.401 1.838-2.452 4.026-3.151 6.564-.613 2.45-.919 5.032-.919 7.745V59.42c0 2.976.306 5.733.919 8.27.611 2.452 1.575 4.596 2.888 6.434s3.019 3.282 5.12 4.332c2.187.962 4.813 1.444 7.877 1.444zm72.638 13.916h-17.33V1.918h17.33v37.678h3.807l24.287-37.678h19.561v.788l-28.357 43.98v2.363l29.932 43.98v.787h-20.348l-25.075-37.678h-3.807v37.678zM375.913 79.9c3.327 0 6.039-.482 8.139-1.444 2.189-1.05 3.852-2.407 4.989-4.07 1.226-1.75 2.057-3.72 2.494-5.908.439-2.275.657-4.594.657-6.957v-2.364h17.329v2.364c0 10.94-2.888 19.386-8.665 25.337-5.688 5.864-14.002 8.796-24.943 8.796-10.503 0-18.817-3.194-24.944-9.584-6.125-6.39-9.19-15.71-9.19-27.963v-20.48c0-5.864.788-11.116 2.364-15.754 1.575-4.726 3.851-8.664 6.826-11.815 2.976-3.239 6.564-5.688 10.765-7.352C365.935.956 370.661.08 375.913.08c5.427 0 10.24.788 14.441 2.364 4.201 1.575 7.702 3.85 10.502 6.826 2.889 2.976 5.034 6.564 6.433 10.765 1.489 4.201 2.232 8.927 2.232 14.179v2.363h-17.329v-2.363a28.04 28.04 0 00-.788-6.564c-.525-2.189-1.399-4.158-2.626-5.908-1.224-1.75-2.888-3.15-4.988-4.201-2.101-1.138-4.726-1.707-7.877-1.707-2.888 0-5.383.569-7.483 1.707a14.342 14.342 0 00-5.252 4.464c-1.399 1.838-2.449 4.026-3.15 6.564-.612 2.45-.919 5.032-.919 7.745V59.42c0 2.976.307 5.733.919 8.27.613 2.452 1.575 4.596 2.888 6.434s3.019 3.282 5.12 4.332c2.188.962 4.814 1.444 7.877 1.444zM494.369 1.918v60.128c0 10.502-2.8 18.73-8.402 24.68-5.513 5.952-13.741 8.928-24.681 8.928-10.939 0-19.21-2.976-24.812-8.927-5.514-5.951-8.271-14.179-8.271-24.681V1.918h17.33v60.128c0 5.426 1.269 9.671 3.807 12.734 2.537 3.063 6.521 4.595 11.946 4.595 5.426 0 9.409-1.532 11.947-4.595 2.538-3.063 3.807-7.308 3.807-12.734V1.918h17.329z" fill="#000"/></svg>