<svg width="495" height="96" viewBox="0 0 495 96" fill="none" xmlns="http://www.w3.org/2000/svg">
<path d="M0.942932 1.91842H18.2722V39.4651H47.9419V1.91842H65.2711V93.8159H47.9419V56.0066H18.2722V93.8159H0.942932V1.91842ZM134.366 74.1235H103.121L98.657 93.8159H80.5401L102.464 1.91842H135.022L156.946 93.8159H138.829L134.366 74.1235ZM106.797 57.582H130.559L119.925 10.5831H117.562L106.797 57.582ZM204.642 79.9C207.967 79.9 210.681 79.4181 212.781 78.4559C214.968 77.4056 216.632 76.0495 217.77 74.3861C218.995 72.6362 219.826 70.6669 220.264 68.4784C220.702 66.2034 220.921 63.8835 220.921 61.5205V59.1574H238.25V61.5205C238.25 72.4601 235.362 80.907 229.586 86.8579C223.896 92.7223 215.582 95.6538 204.642 95.6538C194.139 95.6538 185.824 92.4598 179.698 86.0702C173.571 79.6807 170.509 70.3596 170.509 58.1071V37.6271C170.509 31.7627 171.296 26.5114 172.872 21.8733C174.447 17.1471 176.722 13.2087 179.698 10.0579C182.673 6.81911 186.262 4.36953 190.463 2.70613C194.664 0.9562 199.391 0.0804749 204.642 0.0804749C210.068 0.0804749 214.882 0.868189 219.083 2.44357C223.284 4.01896 226.784 6.294 229.586 9.27022C232.474 12.2464 234.618 15.8343 236.018 20.0354C237.506 24.2364 238.25 28.9625 238.25 34.2138V36.5769H220.921V34.2138C220.921 32.0253 220.658 29.8383 220.133 27.6497C219.608 25.4612 218.732 23.4919 217.508 21.742C216.281 19.9921 214.619 18.5913 212.519 17.541C210.418 16.4027 207.793 15.8343 204.642 15.8343C201.754 15.8343 199.259 16.4027 197.159 17.541C195.058 18.5913 193.307 20.0786 191.908 22.0046C190.507 23.8425 189.456 26.0311 188.757 28.5687C188.144 31.0198 187.838 33.6007 187.838 36.3143V59.42C187.838 62.3962 188.144 65.1531 188.757 67.6907C189.368 70.1418 190.332 72.2856 191.645 74.1235C192.958 75.9615 194.664 77.4056 196.765 78.4559C198.952 79.4181 201.578 79.9 204.642 79.9ZM277.28 93.8159H259.95V1.91842H277.28V39.5964H281.087L305.374 1.91842H324.935V2.70613L296.578 46.6856V49.0487L326.51 93.0282V93.8159H306.162L281.087 56.1379H277.28V93.8159ZM375.913 79.9C379.24 79.9 381.952 79.4181 384.052 78.4559C386.241 77.4056 387.904 76.0495 389.041 74.3861C390.267 72.6362 391.098 70.6669 391.535 68.4784C391.974 66.2034 392.192 63.8835 392.192 61.5205V59.1574H409.521V61.5205C409.521 72.4601 406.633 80.907 400.856 86.8579C395.168 92.7223 386.854 95.6538 375.913 95.6538C365.41 95.6538 357.096 92.4598 350.969 86.0702C344.844 79.6807 341.779 70.3596 341.779 58.1071V37.6271C341.779 31.7627 342.567 26.5114 344.143 21.8733C345.718 17.1471 347.994 13.2087 350.969 10.0579C353.945 6.81911 357.533 4.36953 361.734 2.70613C365.935 0.9562 370.661 0.0804749 375.913 0.0804749C381.34 0.0804749 386.153 0.868189 390.354 2.44357C394.555 4.01896 398.056 6.294 400.856 9.27022C403.745 12.2464 405.89 15.8343 407.289 20.0354C408.778 24.2364 409.521 28.9625 409.521 34.2138V36.5769H392.192V34.2138C392.192 32.0253 391.929 29.8383 391.404 27.6497C390.879 25.4612 390.005 23.4919 388.778 21.742C387.554 19.9921 385.89 18.5913 383.79 17.541C381.689 16.4027 379.064 15.8343 375.913 15.8343C373.025 15.8343 370.53 16.4027 368.43 17.541C366.329 18.5913 364.579 20.0786 363.178 22.0046C361.779 23.8425 360.729 26.0311 360.028 28.5687C359.416 31.0198 359.109 33.6007 359.109 36.3143V59.42C359.109 62.3962 359.416 65.1531 360.028 67.6907C360.641 70.1418 361.603 72.2856 362.916 74.1235C364.229 75.9615 365.935 77.4056 368.036 78.4559C370.224 79.4181 372.85 79.9 375.913 79.9ZM494.369 1.91842V62.0456C494.369 72.5482 491.569 80.7757 485.967 86.7266C480.454 92.6776 472.226 95.6538 461.286 95.6538C450.347 95.6538 442.076 92.6776 436.474 86.7266C430.96 80.7757 428.203 72.5482 428.203 62.0456V1.91842H445.533V62.0456C445.533 67.4715 446.802 71.7172 449.34 74.78C451.877 77.8427 455.861 79.3748 461.286 79.3748C466.712 79.3748 470.695 77.8427 473.233 74.78C475.771 71.7172 477.04 67.4715 477.04 62.0456V1.91842H494.369Z" fill="black"/>
</svg>
