<svg width="100" height="41" fill="none" xmlns="http://www.w3.org/2000/svg"><path d="M4.94 16.14a9.56 9.56 0 01-2.54-.34c-.827-.227-1.487-.513-1.98-.86l.96-1.9c.48.32 1.053.58 1.72.78.68.187 1.347.28 2 .28 1.493 0 2.24-.393 2.24-1.18 0-.373-.193-.633-.58-.78-.373-.147-.98-.287-1.82-.42-.88-.133-1.6-.287-2.16-.46a3.42 3.42 0 01-1.44-.9c-.4-.44-.6-1.047-.6-1.82 0-1.013.42-1.82 1.26-2.42.853-.613 2-.92 3.44-.92.733 0 1.467.087 2.2.26.733.16 1.333.38 1.8.66l-.96 1.9c-.907-.533-1.927-.8-3.06-.8-.733 0-1.293.113-1.68.34-.373.213-.56.5-.56.86 0 .4.2.687.6.86.413.16 1.047.313 1.9.46.853.133 1.553.287 2.1.46a3.215 3.215 0 011.4.88c.4.413.6 1 .6 1.76 0 1-.433 1.8-1.3 2.4-.867.6-2.047.9-3.54.9zm5.993-10.82h2.5V16h-2.5V5.32zm1.26-1.76c-.453 0-.833-.14-1.14-.42a1.436 1.436 0 01-.46-1.08c0-.427.153-.78.46-1.06.307-.293.687-.44 1.14-.44.453 0 .833.14 1.14.42.307.267.46.607.46 1.02 0 .44-.153.813-.46 1.12-.293.293-.673.44-1.14.44zm14.121 1.76v9.06c0 3.76-1.92 5.64-5.76 5.64-1.026 0-2-.133-2.92-.4-.92-.253-1.68-.627-2.28-1.12l1.12-1.88c.467.387 1.054.693 1.76.92.72.24 1.447.36 2.18.36 1.174 0 2.034-.267 2.58-.8.547-.533.82-1.347.82-2.44v-.56c-.426.467-.946.82-1.56 1.06-.613.24-1.286.36-2.02.36-1.013 0-1.933-.213-2.76-.64a5.045 5.045 0 01-1.94-1.84c-.466-.787-.7-1.687-.7-2.7 0-1.013.234-1.907.7-2.68a4.9 4.9 0 011.94-1.82c.827-.427 1.747-.64 2.76-.64.774 0 1.474.127 2.1.38a3.88 3.88 0 011.6 1.16V5.32h2.38zm-5.7 8.08c.947 0 1.72-.28 2.32-.84.614-.573.92-1.313.92-2.22 0-.893-.306-1.62-.92-2.18-.6-.56-1.373-.84-2.32-.84-.96 0-1.746.28-2.36.84-.6.56-.9 1.287-.9 2.18 0 .907.3 1.647.9 2.22.614.56 1.4.84 2.36.84zm14.047-8.2c1.347 0 2.427.393 3.24 1.18.813.787 1.22 1.953 1.22 3.5V16h-2.5v-5.8c0-.933-.22-1.633-.66-2.1-.44-.48-1.067-.72-1.88-.72-.92 0-1.647.28-2.18.84-.533.547-.8 1.34-.8 2.38V16h-2.5V5.32h2.38V6.7a3.91 3.91 0 011.56-1.12c.627-.253 1.333-.38 2.12-.38zm21.499.12V16h-2.38v-1.36c-.4.48-.9.853-1.5 1.12-.6.253-1.247.38-1.94.38-1.427 0-2.554-.393-3.38-1.18-.814-.8-1.22-1.98-1.22-3.54v-6.1h2.5v5.76c0 .96.213 1.68.64 2.16.44.467 1.06.7 1.86.7.893 0 1.6-.273 2.12-.82.533-.56.8-1.36.8-2.4v-5.4h2.5zm8.193-.12c1.04 0 1.967.227 2.78.68a4.886 4.886 0 011.94 1.92c.467.827.7 1.78.7 2.86 0 1.08-.233 2.04-.7 2.88a4.886 4.886 0 01-1.94 1.92c-.813.453-1.74.68-2.78.68-1.44 0-2.58-.48-3.42-1.44v5.18h-2.5V5.32h2.38v1.4c.413-.507.92-.887 1.52-1.14a5.24 5.24 0 012.02-.38zm-.28 8.8c.92 0 1.673-.307 2.26-.92.6-.613.9-1.42.9-2.42s-.3-1.807-.9-2.42c-.587-.613-1.34-.92-2.26-.92-.6 0-1.14.14-1.62.42-.48.267-.86.653-1.14 1.16-.28.507-.42 1.093-.42 1.76s.14 1.253.42 1.76c.28.507.66.9 1.14 1.18.48.267 1.02.4 1.62.4zM80.011 3.04c-1.053 0-1.58.573-1.58 1.72v.64h2.94v2h-2.86V16h-2.5V7.4h-1.76v-2h1.76v-.68c0-1.147.334-2.047 1-2.7.667-.667 1.607-1 2.82-1 .96 0 1.714.193 2.26.58l-.7 1.88a2.39 2.39 0 00-1.38-.44zm6.687 13.1c-1.08 0-2.053-.233-2.92-.7a5.195 5.195 0 01-2.04-1.94c-.48-.84-.72-1.787-.72-2.84s.24-1.993.72-2.82a5.195 5.195 0 012.04-1.94c.866-.467 1.84-.7 2.92-.7 1.093 0 2.073.233 2.94.7a5.055 5.055 0 012.02 1.94c.493.827.74 1.767.74 2.82s-.247 2-.74 2.84a5.055 5.055 0 01-2.02 1.94c-.867.467-1.847.7-2.94.7zm0-2.14c.92 0 1.68-.307 2.28-.92.6-.613.9-1.42.9-2.42s-.3-1.807-.9-2.42c-.6-.613-1.36-.92-2.28-.92-.92 0-1.68.307-2.28.92-.587.613-.88 1.42-.88 2.42s.293 1.807.88 2.42c.6.613 1.36.92 2.28.92zm9.47-7.12c.72-1.12 1.987-1.68 3.8-1.68v2.38a3.173 3.173 0 00-.58-.06c-.973 0-1.733.287-2.28.86-.546.56-.82 1.373-.82 2.44V16h-2.5V5.32h2.38v1.56zM15.12 29.2c1.347 0 2.413.393 3.2 1.18.787.773 1.18 1.94 1.18 3.5V40H17v-5.8c0-.933-.207-1.633-.62-2.1-.413-.48-1.007-.72-1.78-.72-.84 0-1.513.28-2.02.84-.507.547-.76 1.333-.76 2.36V40h-2.5v-5.8c0-.933-.207-1.633-.62-2.1-.413-.48-1.007-.72-1.78-.72-.853 0-1.533.273-2.04.82-.493.547-.74 1.34-.74 2.38V40h-2.5V29.32h2.38v1.36c.4-.48.9-.847 1.5-1.1.6-.253 1.267-.38 2-.38.8 0 1.507.153 2.12.46a3.38 3.38 0 011.48 1.32 4.365 4.365 0 011.7-1.3c.693-.32 1.46-.48 2.3-.48zm11.472 10.94c-1.08 0-2.053-.233-2.92-.7a5.196 5.196 0 01-2.04-1.94c-.48-.84-.72-1.787-.72-2.84s.24-1.993.72-2.82a5.196 5.196 0 012.04-1.94c.867-.467 1.84-.7 2.92-.7 1.094 0 2.074.233 2.94.7a5.055 5.055 0 012.02 1.94c.494.827.74 1.767.74 2.82s-.246 2-.74 2.84a5.055 5.055 0 01-2.02 1.94c-.866.467-1.846.7-2.94.7zm0-2.14c.92 0 1.68-.307 2.28-.92.6-.613.9-1.42.9-2.42s-.3-1.807-.9-2.42c-.6-.613-1.36-.92-2.28-.92-.92 0-1.68.307-2.28.92-.586.613-.88 1.42-.88 2.42s.294 1.807.88 2.42c.6.613 1.36.92 2.28.92zm9.471-7.12c.72-1.12 1.987-1.68 3.8-1.68v2.38a3.175 3.175 0 00-.58-.06c-.973 0-1.733.287-2.28.86-.547.56-.82 1.373-.82 2.44V40h-2.5V29.32h2.38v1.56zm14.863 3.84c0 .173-.013.42-.04.74h-8.38c.147.787.527 1.413 1.14 1.88.627.453 1.4.68 2.32.68 1.173 0 2.14-.387 2.9-1.16l1.34 1.54a4.515 4.515 0 01-1.82 1.3c-.733.293-1.56.44-2.48.44-1.173 0-2.207-.233-3.1-.7-.893-.467-1.587-1.113-2.08-1.94-.48-.84-.72-1.787-.72-2.84 0-1.04.233-1.973.7-2.8a5.087 5.087 0 011.98-1.96c.84-.467 1.787-.7 2.84-.7 1.04 0 1.967.233 2.78.7a4.722 4.722 0 011.92 1.94c.467.827.7 1.787.7 2.88zm-5.4-3.52c-.8 0-1.48.24-2.04.72-.547.467-.88 1.093-1 1.88h6.06c-.107-.773-.433-1.4-.98-1.88-.547-.48-1.227-.72-2.04-.72zm11.329-1.88h2.5V40h-2.5V29.32zm1.26-1.76c-.454 0-.834-.14-1.14-.42a1.436 1.436 0 01-.46-1.08c0-.427.153-.78.46-1.06.306-.293.686-.44 1.14-.44.453 0 .833.14 1.14.42.306.267.46.607.46 1.02 0 .44-.154.813-.46 1.12-.294.293-.674.44-1.14.44zm9.581 1.64c1.347 0 2.427.393 3.24 1.18.813.787 1.22 1.953 1.22 3.5V40h-2.5v-5.8c0-.933-.22-1.633-.66-2.1-.44-.48-1.067-.72-1.88-.72-.92 0-1.647.28-2.18.84-.533.547-.8 1.34-.8 2.38V40h-2.5V29.32h2.38v1.38a3.908 3.908 0 011.56-1.12c.627-.253 1.333-.38 2.12-.38zm10.972-2.16c-1.054 0-1.58.573-1.58 1.72v.64h2.94v2h-2.86V40h-2.5v-8.6h-1.76v-2h1.76v-.68c0-1.147.333-2.047 1-2.7.666-.667 1.606-1 2.82-1 .96 0 1.713.193 2.26.58l-.7 1.88a2.39 2.39 0 00-1.38-.44zm6.686 13.1c-1.08 0-2.053-.233-2.92-.7a5.195 5.195 0 01-2.04-1.94c-.48-.84-.72-1.787-.72-2.84s.24-1.993.72-2.82a5.195 5.195 0 012.04-1.94c.867-.467 1.84-.7 2.92-.7 1.093 0 2.073.233 2.94.7a5.056 5.056 0 012.02 1.94c.493.827.74 1.767.74 2.82s-.247 2-.74 2.84a5.056 5.056 0 01-2.02 1.94c-.867.467-1.847.7-2.94.7zm0-2.14c.92 0 1.68-.307 2.28-.92.6-.613.9-1.42.9-2.42s-.3-1.807-.9-2.42c-.6-.613-1.36-.92-2.28-.92-.92 0-1.68.307-2.28.92-.587.613-.88 1.42-.88 2.42s.293 1.807.88 2.42c.6.613 1.36.92 2.28.92zm6.77-12h2.96l-.5 9.36h-1.98l-.48-9.36zm1.48 14.14c-.466 0-.853-.147-1.16-.44a1.524 1.524 0 01-.46-1.12c0-.44.154-.807.46-1.1.307-.293.694-.44 1.16-.44.454 0 .827.147 1.12.44.307.293.46.66.46 1.1 0 .44-.153.813-.46 1.12-.293.293-.666.44-1.12.44z" fill="#fff"/></svg>