<svg width="100" height="41" viewBox="0 0 100 41" fill="none" xmlns="http://www.w3.org/2000/svg">
<path d="M4.94 16.14C4.07333 16.14 3.22667 16.0267 2.4 15.8C1.57333 15.5733 0.913333 15.2867 0.42 14.94L1.38 13.04C1.86 13.36 2.43333 13.62 3.1 13.82C3.78 14.0067 4.44667 14.1 5.1 14.1C6.59333 14.1 7.34 13.7067 7.34 12.92C7.34 12.5467 7.14667 12.2867 6.76 12.14C6.38667 11.9933 5.78 11.8533 4.94 11.72C4.06 11.5867 3.34 11.4333 2.78 11.26C2.23333 11.0867 1.75333 10.7867 1.34 10.36C0.94 9.92 0.74 9.31333 0.74 8.54C0.74 7.52667 1.16 6.72 2 6.12C2.85333 5.50667 4 5.2 5.44 5.2C6.17333 5.2 6.90667 5.28667 7.64 5.46C8.37333 5.62 8.97333 5.84 9.44 6.12L8.48 8.02C7.57333 7.48667 6.55333 7.22 5.42 7.22C4.68667 7.22 4.12667 7.33333 3.74 7.56C3.36667 7.77333 3.18 8.06 3.18 8.42C3.18 8.82 3.38 9.10667 3.78 9.28C4.19333 9.44 4.82667 9.59333 5.68 9.74C6.53333 9.87333 7.23333 10.0267 7.78 10.2C8.32667 10.3733 8.79333 10.6667 9.18 11.08C9.58 11.4933 9.78 12.08 9.78 12.84C9.78 13.84 9.34667 14.64 8.48 15.24C7.61333 15.84 6.43333 16.14 4.94 16.14ZM10.933 5.32H13.433V16H10.933V5.32ZM12.193 3.56C11.7396 3.56 11.3596 3.42 11.053 3.14C10.7463 2.84667 10.593 2.48667 10.593 2.06C10.593 1.63333 10.7463 1.28 11.053 0.999999C11.3596 0.706666 11.7396 0.56 12.193 0.56C12.6463 0.56 13.0263 0.699999 13.333 0.979999C13.6396 1.24667 13.793 1.58667 13.793 2C13.793 2.44 13.6396 2.81333 13.333 3.12C13.0396 3.41333 12.6596 3.56 12.193 3.56ZM26.3142 5.32V14.38C26.3142 18.14 24.3942 20.02 20.5542 20.02C19.5276 20.02 18.5542 19.8867 17.6342 19.62C16.7142 19.3667 15.9542 18.9933 15.3542 18.5L16.4742 16.62C16.9409 17.0067 17.5276 17.3133 18.2342 17.54C18.9542 17.78 19.6809 17.9 20.4142 17.9C21.5876 17.9 22.4476 17.6333 22.9942 17.1C23.5409 16.5667 23.8142 15.7533 23.8142 14.66V14.1C23.3876 14.5667 22.8676 14.92 22.2542 15.16C21.6409 15.4 20.9676 15.52 20.2342 15.52C19.2209 15.52 18.3009 15.3067 17.4742 14.88C16.6609 14.44 16.0142 13.8267 15.5342 13.04C15.0676 12.2533 14.8342 11.3533 14.8342 10.34C14.8342 9.32667 15.0676 8.43333 15.5342 7.66C16.0142 6.87333 16.6609 6.26667 17.4742 5.84C18.3009 5.41333 19.2209 5.2 20.2342 5.2C21.0076 5.2 21.7076 5.32667 22.3342 5.58C22.9742 5.83333 23.5076 6.22 23.9342 6.74V5.32H26.3142ZM20.6142 13.4C21.5609 13.4 22.3342 13.12 22.9342 12.56C23.5476 11.9867 23.8542 11.2467 23.8542 10.34C23.8542 9.44667 23.5476 8.72 22.9342 8.16C22.3342 7.6 21.5609 7.32 20.6142 7.32C19.6542 7.32 18.8676 7.6 18.2542 8.16C17.6542 8.72 17.3542 9.44667 17.3542 10.34C17.3542 11.2467 17.6542 11.9867 18.2542 12.56C18.8676 13.12 19.6542 13.4 20.6142 13.4ZM34.6609 5.2C36.0076 5.2 37.0876 5.59333 37.9009 6.38C38.7143 7.16667 39.1209 8.33333 39.1209 9.88V16H36.6209V10.2C36.6209 9.26667 36.4009 8.56667 35.9609 8.1C35.5209 7.62 34.8943 7.38 34.0809 7.38C33.1609 7.38 32.4343 7.66 31.9009 8.22C31.3676 8.76667 31.1009 9.56 31.1009 10.6V16H28.6009V5.32H30.9809V6.7C31.3943 6.20667 31.9143 5.83333 32.5409 5.58C33.1676 5.32667 33.8743 5.2 34.6609 5.2ZM56.1597 5.32V16H53.7797V14.64C53.3797 15.12 52.8797 15.4933 52.2797 15.76C51.6797 16.0133 51.033 16.14 50.3397 16.14C48.913 16.14 47.7864 15.7467 46.9597 14.96C46.1464 14.16 45.7397 12.98 45.7397 11.42V5.32H48.2397V11.08C48.2397 12.04 48.453 12.76 48.8797 13.24C49.3197 13.7067 49.9397 13.94 50.7397 13.94C51.633 13.94 52.3397 13.6667 52.8597 13.12C53.393 12.56 53.6597 11.76 53.6597 10.72V5.32H56.1597ZM64.353 5.2C65.393 5.2 66.3196 5.42667 67.133 5.88C67.9596 6.33333 68.6063 6.97333 69.073 7.8C69.5396 8.62667 69.773 9.58 69.773 10.66C69.773 11.74 69.5396 12.7 69.073 13.54C68.6063 14.3667 67.9596 15.0067 67.133 15.46C66.3196 15.9133 65.393 16.14 64.353 16.14C62.913 16.14 61.773 15.66 60.933 14.7V19.88H58.433V5.32H60.813V6.72C61.2263 6.21333 61.733 5.83333 62.333 5.58C62.9463 5.32667 63.6196 5.2 64.353 5.2ZM64.073 14C64.993 14 65.7463 13.6933 66.333 13.08C66.933 12.4667 67.233 11.66 67.233 10.66C67.233 9.66 66.933 8.85333 66.333 8.24C65.7463 7.62667 64.993 7.32 64.073 7.32C63.473 7.32 62.933 7.46 62.453 7.74C61.973 8.00667 61.593 8.39333 61.313 8.9C61.033 9.40667 60.893 9.99333 60.893 10.66C60.893 11.3267 61.033 11.9133 61.313 12.42C61.593 12.9267 61.973 13.32 62.453 13.6C62.933 13.8667 63.473 14 64.073 14ZM80.0113 3.04C78.9579 3.04 78.4313 3.61333 78.4313 4.76V5.4H81.3713V7.4H78.5113V16H76.0113V7.4H74.2513V5.4H76.0113V4.72C76.0113 3.57333 76.3446 2.67333 77.0113 2.02C77.6779 1.35333 78.6179 1.02 79.8313 1.02C80.7913 1.02 81.5446 1.21333 82.0913 1.6L81.3913 3.48C80.9646 3.18667 80.5046 3.04 80.0113 3.04ZM86.6978 16.14C85.6178 16.14 84.6445 15.9067 83.7778 15.44C82.9111 14.9733 82.2311 14.3267 81.7378 13.5C81.2578 12.66 81.0178 11.7133 81.0178 10.66C81.0178 9.60667 81.2578 8.66667 81.7378 7.84C82.2311 7.01333 82.9111 6.36667 83.7778 5.9C84.6445 5.43333 85.6178 5.2 86.6978 5.2C87.7911 5.2 88.7711 5.43333 89.6378 5.9C90.5045 6.36667 91.1778 7.01333 91.6578 7.84C92.1511 8.66667 92.3978 9.60667 92.3978 10.66C92.3978 11.7133 92.1511 12.66 91.6578 13.5C91.1778 14.3267 90.5045 14.9733 89.6378 15.44C88.7711 15.9067 87.7911 16.14 86.6978 16.14ZM86.6978 14C87.6178 14 88.3778 13.6933 88.9778 13.08C89.5778 12.4667 89.8778 11.66 89.8778 10.66C89.8778 9.66 89.5778 8.85333 88.9778 8.24C88.3778 7.62667 87.6178 7.32 86.6978 7.32C85.7778 7.32 85.0178 7.62667 84.4178 8.24C83.8311 8.85333 83.5378 9.66 83.5378 10.66C83.5378 11.66 83.8311 12.4667 84.4178 13.08C85.0178 13.6933 85.7778 14 86.6978 14ZM96.1684 6.88C96.8884 5.76 98.1551 5.2 99.9684 5.2V7.58C99.7551 7.54 99.5618 7.52 99.3884 7.52C98.4151 7.52 97.6551 7.80667 97.1084 8.38C96.5618 8.94 96.2884 9.75333 96.2884 10.82V16H93.7884V5.32H96.1684V6.88ZM15.12 29.2C16.4667 29.2 17.5333 29.5933 18.32 30.38C19.1067 31.1533 19.5 32.32 19.5 33.88V40H17V34.2C17 33.2667 16.7933 32.5667 16.38 32.1C15.9667 31.62 15.3733 31.38 14.6 31.38C13.76 31.38 13.0867 31.66 12.58 32.22C12.0733 32.7667 11.82 33.5533 11.82 34.58V40H9.32V34.2C9.32 33.2667 9.11333 32.5667 8.7 32.1C8.28667 31.62 7.69333 31.38 6.92 31.38C6.06667 31.38 5.38667 31.6533 4.88 32.2C4.38667 32.7467 4.14 33.54 4.14 34.58V40H1.64V29.32H4.02V30.68C4.42 30.2 4.92 29.8333 5.52 29.58C6.12 29.3267 6.78667 29.2 7.52 29.2C8.32 29.2 9.02667 29.3533 9.64 29.66C10.2667 29.9533 10.76 30.3933 11.12 30.98C11.56 30.42 12.1267 29.9867 12.82 29.68C13.5133 29.36 14.28 29.2 15.12 29.2ZM26.5923 40.14C25.5123 40.14 24.539 39.9067 23.6723 39.44C22.8057 38.9733 22.1257 38.3267 21.6323 37.5C21.1523 36.66 20.9123 35.7133 20.9123 34.66C20.9123 33.6067 21.1523 32.6667 21.6323 31.84C22.1257 31.0133 22.8057 30.3667 23.6723 29.9C24.539 29.4333 25.5123 29.2 26.5923 29.2C27.6857 29.2 28.6657 29.4333 29.5323 29.9C30.399 30.3667 31.0723 31.0133 31.5523 31.84C32.0457 32.6667 32.2923 33.6067 32.2923 34.66C32.2923 35.7133 32.0457 36.66 31.5523 37.5C31.0723 38.3267 30.399 38.9733 29.5323 39.44C28.6657 39.9067 27.6857 40.14 26.5923 40.14ZM26.5923 38C27.5123 38 28.2723 37.6933 28.8723 37.08C29.4723 36.4667 29.7723 35.66 29.7723 34.66C29.7723 33.66 29.4723 32.8533 28.8723 32.24C28.2723 31.6267 27.5123 31.32 26.5923 31.32C25.6723 31.32 24.9123 31.6267 24.3123 32.24C23.7257 32.8533 23.4323 33.66 23.4323 34.66C23.4323 35.66 23.7257 36.4667 24.3123 37.08C24.9123 37.6933 25.6723 38 26.5923 38ZM36.063 30.88C36.783 29.76 38.0496 29.2 39.863 29.2V31.58C39.6496 31.54 39.4563 31.52 39.283 31.52C38.3096 31.52 37.5496 31.8067 37.003 32.38C36.4563 32.94 36.183 33.7533 36.183 34.82V40H33.683V29.32H36.063V30.88ZM50.9261 34.72C50.9261 34.8933 50.9128 35.14 50.8861 35.46H42.5061C42.6528 36.2467 43.0328 36.8733 43.6461 37.34C44.2728 37.7933 45.0461 38.02 45.9661 38.02C47.1394 38.02 48.1061 37.6333 48.8661 36.86L50.2061 38.4C49.7261 38.9733 49.1194 39.4067 48.3861 39.7C47.6528 39.9933 46.8261 40.14 45.9061 40.14C44.7328 40.14 43.6994 39.9067 42.8061 39.44C41.9128 38.9733 41.2194 38.3267 40.7261 37.5C40.2461 36.66 40.0061 35.7133 40.0061 34.66C40.0061 33.62 40.2394 32.6867 40.7061 31.86C41.1861 31.02 41.8461 30.3667 42.6861 29.9C43.5261 29.4333 44.4728 29.2 45.5261 29.2C46.5661 29.2 47.4928 29.4333 48.3061 29.9C49.1328 30.3533 49.7728 31 50.2261 31.84C50.6928 32.6667 50.9261 33.6267 50.9261 34.72ZM45.5261 31.2C44.7261 31.2 44.0461 31.44 43.4861 31.92C42.9394 32.3867 42.6061 33.0133 42.4861 33.8H48.5461C48.4394 33.0267 48.1128 32.4 47.5661 31.92C47.0194 31.44 46.3394 31.2 45.5261 31.2ZM56.8548 29.32H59.3548V40H56.8548V29.32ZM58.1148 27.56C57.6615 27.56 57.2815 27.42 56.9748 27.14C56.6682 26.8467 56.5148 26.4867 56.5148 26.06C56.5148 25.6333 56.6682 25.28 56.9748 25C57.2815 24.7067 57.6615 24.56 58.1148 24.56C58.5682 24.56 58.9482 24.7 59.2548 24.98C59.5615 25.2467 59.7148 25.5867 59.7148 26C59.7148 26.44 59.5615 26.8133 59.2548 27.12C58.9615 27.4133 58.5815 27.56 58.1148 27.56ZM67.6961 29.2C69.0428 29.2 70.1228 29.5933 70.9361 30.38C71.7494 31.1667 72.1561 32.3333 72.1561 33.88V40H69.6561V34.2C69.6561 33.2667 69.4361 32.5667 68.9961 32.1C68.5561 31.62 67.9294 31.38 67.1161 31.38C66.1961 31.38 65.4694 31.66 64.9361 32.22C64.4028 32.7667 64.1361 33.56 64.1361 34.6V40H61.6361V29.32H64.0161V30.7C64.4294 30.2067 64.9494 29.8333 65.5761 29.58C66.2028 29.3267 66.9094 29.2 67.6961 29.2ZM78.6675 27.04C77.6142 27.04 77.0875 27.6133 77.0875 28.76V29.4H80.0275V31.4H77.1675V40H74.6675V31.4H72.9075V29.4H74.6675V28.72C74.6675 27.5733 75.0008 26.6733 75.6675 26.02C76.3342 25.3533 77.2742 25.02 78.4875 25.02C79.4475 25.02 80.2008 25.2133 80.7475 25.6L80.0475 27.48C79.6208 27.1867 79.1608 27.04 78.6675 27.04ZM85.3541 40.14C84.2741 40.14 83.3007 39.9067 82.4341 39.44C81.5674 38.9733 80.8874 38.3267 80.3941 37.5C79.9141 36.66 79.6741 35.7133 79.6741 34.66C79.6741 33.6067 79.9141 32.6667 80.3941 31.84C80.8874 31.0133 81.5674 30.3667 82.4341 29.9C83.3007 29.4333 84.2741 29.2 85.3541 29.2C86.4474 29.2 87.4274 29.4333 88.2941 29.9C89.1607 30.3667 89.8341 31.0133 90.3141 31.84C90.8074 32.6667 91.0541 33.6067 91.0541 34.66C91.0541 35.7133 90.8074 36.66 90.3141 37.5C89.8341 38.3267 89.1607 38.9733 88.2941 39.44C87.4274 39.9067 86.4474 40.14 85.3541 40.14ZM85.3541 38C86.2741 38 87.0341 37.6933 87.6341 37.08C88.2341 36.4667 88.5341 35.66 88.5341 34.66C88.5341 33.66 88.2341 32.8533 87.6341 32.24C87.0341 31.6267 86.2741 31.32 85.3541 31.32C84.4341 31.32 83.6741 31.6267 83.0741 32.24C82.4874 32.8533 82.1941 33.66 82.1941 34.66C82.1941 35.66 82.4874 36.4667 83.0741 37.08C83.6741 37.6933 84.4341 38 85.3541 38ZM92.1247 26H95.0847L94.5847 35.36H92.6047L92.1247 26ZM93.6047 40.14C93.138 40.14 92.7514 39.9933 92.4447 39.7C92.138 39.3933 91.9847 39.02 91.9847 38.58C91.9847 38.14 92.138 37.7733 92.4447 37.48C92.7514 37.1867 93.138 37.04 93.6047 37.04C94.058 37.04 94.4314 37.1867 94.7247 37.48C95.0314 37.7733 95.1847 38.14 95.1847 38.58C95.1847 39.02 95.0314 39.3933 94.7247 39.7C94.4314 39.9933 94.058 40.14 93.6047 40.14Z" fill="white"/>
</svg>
