<svg width="75" height="106" viewBox="0 0 75 106" fill="none" xmlns="http://www.w3.org/2000/svg">
<path d="M0.370911 41.7848C0.370911 28.7998 3.61718 18.7269 10.1097 11.566C16.6976 4.40521 25.768 0.824768 37.3208 0.824768C48.8736 0.824768 57.8964 4.40521 64.3889 11.566C70.9768 18.7269 74.2708 28.7998 74.2708 41.7848V64.1266C74.2708 77.4935 70.9768 87.6619 64.3889 94.6318C57.8964 101.602 48.8736 105.087 37.3208 105.087C25.768 105.087 16.6976 101.602 10.1097 94.6318C3.61718 87.6619 0.370911 77.4935 0.370911 64.1266V41.7848ZM37.3208 87.9006C40.758 87.9006 43.6224 87.3755 45.9138 86.3252C48.2053 85.1795 50.0672 83.6041 51.4993 81.5991C52.9315 79.594 53.934 77.2071 54.5069 74.4382C55.0797 71.6693 55.3661 68.6141 55.3661 65.2724V40.6391C55.3661 37.4883 55.032 34.5284 54.3636 31.7596C53.6953 28.9907 52.645 26.6038 51.2129 24.5988C49.7807 22.5937 47.9189 21.0183 45.6274 19.8726C43.3359 18.6314 40.5671 18.0108 37.3208 18.0108C34.0746 18.0108 31.3057 18.6314 29.0143 19.8726C26.7228 21.0183 24.8611 22.5937 23.4289 24.5988C21.9967 26.6038 20.9465 28.9907 20.2781 31.7596C19.6098 34.5284 19.2756 37.4883 19.2756 40.6391V65.2724C19.2756 68.6141 19.562 71.6693 20.1349 74.4382C20.7078 77.2071 21.7103 79.594 23.1424 81.5991C24.5746 83.6041 26.4364 85.1795 28.7279 86.3252C31.0194 87.3755 33.8836 87.9006 37.3208 87.9006Z" fill="#FB9F4B"/>
</svg>
