<svg xmlns="http://www.w3.org/2000/svg" width="5250" height="1500"><path d="M1837.942 787.912c157.202 0 263.615-82.576 263.615-208.864v-2.43c0-134.786-103.992-205.207-256.353-205.207h-192.886v416.501h185.624zm-248.499-474.787h260.594c186.225 0 314.406 95.928 314.406 259.856v2.421c0 178.505-153.573 270.796-330.123 270.796h-182.002v316.927h-62.875v-850zm1071.369 617.529v-70.352c-52.15-13.347-121.289-27.898-209.835-27.898-130.992 0-203.774 58.221-203.774 144.339v2.429c0 89.76 84.903 141.91 179.52 141.91 126.147 0 234.09-77.628 234.09-190.428m-476.678 52.15v-2.419c0-128.573 110.37-201.345 270.485-201.345 86.117 0 145.552 10.908 204.988 26.683V779.04c0-124.94-76.425-189.223-203.775-189.223-75.21 0-137.063 20.62-194.07 49.73l-21.836-52.16c67.925-31.538 134.636-53.363 219.539-53.363 83.7 0 150.41 23.039 195.285 67.924 41.242 41.242 63.079 98.25 63.079 174.664v385.712h-58.222v-103.096c-42.457 59.426-118.87 117.647-236.527 117.647-115.229 0-238.946-65.496-238.946-194.07m610.292-438.278h59.435v175.878c48.518-110.381 181.714-175.254 304.655-175.254v55.169h-6.06c-143.125 0-298.595 107.954-298.595 309.299v253.506h-59.435V544.527zm439.003-.8V346.013h59.445v197.714h217.11v54.579h-217.11v399.058c0 88.547 52.16 120.085 123.727 120.085 30.325 0 55.793-6.07 90.955-21.835v55.793c-31.529 14.56-61.854 21.835-100.667 21.835-95.832 0-173.46-52.16-173.46-169.816v-405.12m463.558 264.725v-2.371c0-169.36 134.56-316.225 306.888-316.225 113.31 0 184.124 52.116 240.779 111.336l-41.305 42.633c-51.929-53.293-110.948-99.482-200.647-99.482-136.92 0-243.142 114.874-243.142 259.367v2.37c0 145.67 109.756 261.738 247.849 261.738 84.992 0 151.081-43.817 201.838-100.666l40.133 35.529c-61.381 69.88-134.559 119.615-245.505 119.615-173.501 0-306.888-144.484-306.888-313.844m616.205-584.906h60v885h-60v-885zm621.058 554.111c-8.265-121.987-77.92-234.5-216.097-234.5-119.264 0-211.37 100.667-221.998 234.5h438.095zm-499.505 29.61v-2.372c0-175.288 122.82-315.038 285.771-315.038 168.873 0 276.335 137.388 276.335 316.223 0 10.662 0 14.208-1.19 23.683h-499.506c10.629 150.421 118.091 238.055 236.183 238.055 93.277 0 157.05-41.446 206.64-94.748l40.152 35.53c-61.41 66.332-133.43 113.695-249.156 113.695-158.244 0-295.229-126.718-295.229-315.028m-859.053-318.22h60v619.499h-60V543.626zm0-198.001h60v97.978h-60v-97.978z" fill="#231f20"/><path d="M1365.647 737.5L1069.5 801.095l-41.127-63.595 41.127-63.599 296.148 63.599zM809.378 956.49l63.597 41.128-63.597 296.113-63.599-296.113 63.599-41.127zm0-775.22l63.597 296.106-63.597 41.13-63.599-41.13 63.599-296.107zM549.254 673.901l41.13 63.599-41.13 63.595L253.148 737.5l296.106-63.599z" fill="#00aeef"/><path d="M1202.72 344.207L948.458 737.479l254.262 393.318L809.4 876.529l-393.315 254.268 254.257-393.318-254.257-393.272L809.4 598.416l393.32-254.21z" fill="#00aeef"/></svg>