<svg id="Layer_2" data-name="Layer 2" xmlns="http://www.w3.org/2000/svg" viewBox="0 0 290 180"><defs><style>.cls-1{fill:#fff;}.cls-2{fill:#ef3e24;}</style></defs><title>Artboard 1</title><path class="cls-1" d="M202.18,96h-.07l-5.35,1.29a.27.27,0,0,0-.2.23L190,152.16a.27.27,0,0,0,.09.24.26.26,0,0,0,.18.07h.06l6.16-1.48a.27.27,0,0,0,.21-.23L198,139.55l9.21-2.21L214,162.92a.27.27,0,0,0,.26.2h.06l5.87-1.25a.27.27,0,0,0,.18-.13.27.27,0,0,0,0-.21L202.44,96.21A.27.27,0,0,0,202.18,96Zm-3.51,37.82,2.41-20.15,4.82,18.41Z"/><path class="cls-1" d="M235.21,87.87c-3.63,0-9.6,5.58-9.84,5.71V90.73a.27.27,0,0,0-.1-.21.26.26,0,0,0-.17-.06h-.05l-5.68,1.39a.27.27,0,0,0-.22.27v49.49a.27.27,0,0,0,.1.21.26.26,0,0,0,.17.06h.05l5.68-1.33a.27.27,0,0,0,.22-.27V100.76c.65-.49,5.3-5.26,7.58-5.26,1.27,0,1.89.83,1.89,2.55V137.8a.27.27,0,0,0,.1.21.26.26,0,0,0,.17.06h.06l5.59-1.33a.27.27,0,0,0,.21-.27V94.1C241,89,237.84,87.87,235.21,87.87Z"/><path class="cls-1" d="M245.15,83.15V88.5a.27.27,0,0,0,.1.22.3.3,0,0,0,.17.06h.07l6.37-1.66v39.73a.27.27,0,0,0,.1.21.27.27,0,0,0,.17.06h.06l6.14-1.47a.27.27,0,0,0,.21-.27V85.52l8.87-2.11a.27.27,0,0,0,.21-.26V77.82a.27.27,0,0,0-.1-.21.26.26,0,0,0-.17-.06h-.06l-21.94,5.33A.27.27,0,0,0,245.15,83.15Z"/><path class="cls-1" d="M250,56.1c7.48-4,10.19-11.06,9-16-1.06-4.35-4.91-6.95-10.29-6.95a22.46,22.46,0,0,0-5.14.65l-5,1.24a.27.27,0,0,0-.21.26v44a.27.27,0,0,0,.1.21.26.26,0,0,0,.17.06h.06l5.48-1.32a.27.27,0,0,0,.21-.26V57.82L260.67,74.1a.28.28,0,0,0,.19.07h.06l5.27-1.27a.27.27,0,0,0,.12-.46C266.2,72.33,253.76,59.77,250,56.1ZM244.36,39a12.89,12.89,0,0,1,4.11-.78c2.92,0,4.83,1.48,5.12,3.95.42,3.55-2.68,8.16-9.23,9.87Z"/><path class="cls-1" d="M185.31,100.1h-.06l-5.41,1.31a.28.28,0,0,0-.21.26V141a.28.28,0,0,0,.1.22.3.3,0,0,0,.17.06H180l5.41-1.28a.27.27,0,0,0,.21-.26V100.37a.27.27,0,0,0-.27-.27Z"/><path class="cls-1" d="M145.26,44.39l.11,0-24,5.77a.27.27,0,0,0-.21.26v5.89a.27.27,0,0,0,.1.21.28.28,0,0,0,.17.06h.06l8.62-2.08v51.07a.27.27,0,0,0,.27.27l5.76-1.4a.27.27,0,0,0,.21-.26V53l9-2.14a.27.27,0,0,0,.21-.26V44.66a.28.28,0,0,0-.1-.22A.29.29,0,0,0,145.26,44.39Z"/><path class="cls-1" d="M113.16,87.78c-1.56-2.76-3-5.36-4-7.23-3.52-6.56-2.13-9.63,0-10.94a2.4,2.4,0,0,1,1.26-.37c1,0,3.5,0,5.69,7.1a.27.27,0,0,0,.15.17l.11,0,.11,0,6.4-2.93a.27.27,0,0,0,.15-.32c-2.76-9.86-7.7-11.93-11.35-11.93a12,12,0,0,0-6.51,2.12c-4.77,3.23-8.7,10.27-4.09,19.49,1.81,3.62,3.85,7.13,5.82,10.51a106.81,106.81,0,0,1,6.93,13.19c2.14,5.33,2.09,9.42.33,12.59a6,6,0,0,1-4.3,3.13,4,4,0,0,1-.65.06c-5.15,0-5.1-11.06-5.1-11.18a.27.27,0,0,0-.1-.2.26.26,0,0,0-.17-.06h0l-7.64,1.35a.27.27,0,0,0-.22.27c0,12,4.48,19.15,12,19.15a12.73,12.73,0,0,0,2.2-.2c4.24-.75,8.38-4,10.81-8.49,3.2-5.91,3.2-13.31,0-20.84C119.67,99.32,116.21,93.19,113.16,87.78Z"/><path class="cls-1" d="M182.07,80.23v-.06a.25.25,0,0,0-.26-.26h-.07L176,81.3a.25.25,0,0,0-.19.22l0,.17c-.67,6.46-2.16,7.79-4.19,7.79-3.3,0-5.24-6-5.24-18,0-14.06,2.14-20.38,5.24-20.38,1.57,0,3.48.9,4.24,7.93l0,.27a.26.26,0,0,0,.11.18.26.26,0,0,0,.15,0h.05l5.51-1.17a.25.25,0,0,0,.2-.28l0-.22c-1.12-9.31-5.82-13.48-10-13.48-.25,0-.49,0-.73,0-5.91,0-11.29,8.06-11.29,27.07,0,21.05,7.48,24.8,11.74,24.8,3.18,0,8.76-2,10.41-15.76Z"/><path class="cls-1" d="M223.12,83.45c6.23,0,9.81-5,10.64-14.73l0-.36a.26.26,0,0,0-.11-.23.34.34,0,0,0-.2-.06h-.07l-5.52,1.18a.29.29,0,0,0-.24.24l0,.18c-.6,5.14-2.12,7.75-4.51,7.75-1.9,0-4.42-1.4-4.42-13.56,0-.41,0-.8,0-1.19L231.52,60l2-.38a.28.28,0,0,0,.24-.28l0-.23c-1.14-15.37-7.84-17-10.66-17-4.06,0-10.87,2.83-10.87,21.76C212.25,82,220.56,83.45,223.12,83.45Zm0-35.19c2.3,0,3.74,2.59,4.4,7.9l-8.67,1.63C219.32,49.87,220.83,48.27,223.12,48.27Z"/><path class="cls-1" d="M172.08,122.57a.26.26,0,0,0-.11-.17.25.25,0,0,0-.15,0h-.05l-13,2.66a.25.25,0,0,0-.2.27l.49,5.27a.25.25,0,0,0,.1.18.27.27,0,0,0,.15.05h.05l6.65-1.36c.22,3.11.21,8.36-2,10.78a3.87,3.87,0,0,1-3,1.28h-.26c-1.5-.07-3.16-1.88-4.42-4.83a27.48,27.48,0,0,1-2-11.5c.29-9,3.69-14.54,6.73-15.19a3.67,3.67,0,0,1,.76-.09c1.94,0,3.1,2.17,3.76,7l.05.39a.24.24,0,0,0,.1.17.25.25,0,0,0,.15,0h0l5.34-1a.26.26,0,0,0,.2-.28l0-.35c-1.13-8.42-4.24-12.69-9.27-12.69l-.67,0c-7.24.54-13.22,10.12-13.6,21.82-.27,8.31,2.16,16.46,6.21,20.76a9.2,9.2,0,0,0,6.38,3.2h.39a9.68,9.68,0,0,0,7.66-3.36c5.59-6.44,4-20,3.6-22.65Z"/><path class="cls-1" d="M152.52,100.23V65.48a.28.28,0,0,0-.27-.27h-.06l-5.7,1.38a.27.27,0,0,0-.21.26v34.76a.27.27,0,0,0,.1.21.27.27,0,0,0,.17.06h.06l5.7-1.39A.27.27,0,0,0,152.52,100.23Z"/><circle class="cls-1" cx="149.4" cy="58.33" r="3.51"/><path class="cls-1" d="M195,89.94V78.2l10.2,9.34a.26.26,0,0,0,.19.08h.06L211.92,86a.27.27,0,0,0,.13-.45L196.49,70.14,211.2,44.62a.27.27,0,0,0,0-.3.27.27,0,0,0-.22-.11h-.06L203.53,46a.27.27,0,0,0-.17.13L195,60.65V22.16a.27.27,0,0,0-.1-.21.27.27,0,0,0-.17-.06h-.06l-6,1.43a.27.27,0,0,0-.21.26V91.41a.27.27,0,0,0,.1.21.28.28,0,0,0,.17.06h.06l6-1.47A.27.27,0,0,0,195,89.94Z"/><path class="cls-2" d="M223.12,48.27c-2.28,0-3.8,1.6-4.27,9.53l8.67-1.63C226.86,50.85,225.41,48.27,223.12,48.27Z"/><path class="cls-2" d="M244.44,11.22C220.32-3,176.93-1.22,151.22,21.27c4.3-3.33,10.57-5,15.38-4.07,8.64,1.61,10,12.29,4,17.85-7.63,7-18-.41-25.6-3.36C124.81,23.8,93.83,28.27,85.39,51c9-15,20-12,23.23-6,2.87,5.26.51,12.84-6.94,14.78-8.41,2.19-37.76-.61-53.07,26C58.69,73.07,69.9,71.49,75.72,77.48s3.52,16.76-8.36,18.83c-30.73,5.35-48.49,12.86-65.14,25.42,37.48-21.47,58.66.86,61.6,3.61s17.69,16.92,33.83,20.13,25.94-3.63,29-5.44c4.5-2.64,10.09-4,12.57.67,1.88,3.51.31,8.91-7,12.75-6.58,3.47-24.52,6.06-33.21,2.63,3.72,5.95,16.14,11.6,36.62,9.85s31.08-9.19,35.46-13.65c3-3.08,5.84-4.16,8.53-2.54,2.24,1.35,2.48,4.72.78,7.24-1.39,2.06-9.08,9.4-21.82,9.14,3.76,3.5,19.76,12.16,45.79,9.83,31.39-2.81,81.92-29.66,82.55-92.67C287.26,52.14,269.11,25.79,244.44,11.22ZM223.12,42.11c2.82,0,9.52,1.66,10.66,17l0,.23a.28.28,0,0,1-.24.28l-2,.38L218.7,62.67c0,.39,0,.78,0,1.19,0,12.15,2.52,13.56,4.42,13.56,2.39,0,3.91-2.61,4.51-7.75l0-.18a.29.29,0,0,1,.24-.24l5.52-1.18h.07a.34.34,0,0,1,.2.06.26.26,0,0,1,.11.23l0,.36c-.83,9.78-4.4,14.73-10.64,14.73-2.55,0-10.87-1.41-10.87-19.59C212.25,44.94,219.06,42.11,223.12,42.11Zm-102.2,80.94c-2.43,4.49-6.58,7.74-10.81,8.49a12.73,12.73,0,0,1-2.2.2c-7.5,0-12-7.16-12-19.15a.27.27,0,0,1,.22-.27l7.64-1.35h0a.26.26,0,0,1,.17.06.27.27,0,0,1,.1.2c0,.12,0,11.18,5.1,11.18a4,4,0,0,0,.65-.06,6,6,0,0,0,4.3-3.13c1.76-3.17,1.81-7.26-.33-12.59a106.81,106.81,0,0,0-6.93-13.19c-2-3.39-4-6.89-5.82-10.51-4.61-9.22-.67-16.26,4.09-19.49a12,12,0,0,1,6.51-2.12c3.66,0,8.6,2.07,11.35,11.93a.27.27,0,0,1-.15.32l-6.4,2.93-.11,0-.11,0a.27.27,0,0,1-.15-.17c-2.19-7.12-4.67-7.1-5.69-7.1a2.4,2.4,0,0,0-1.26.37c-2.15,1.31-3.54,4.37,0,10.94,1,1.87,2.47,4.48,4,7.23,3.05,5.41,6.51,11.54,7.74,14.43C124.11,109.74,124.12,117.14,120.92,123.05Zm24.62-72.48a.27.27,0,0,1-.21.26l-9,2.14v51.19a.27.27,0,0,1-.21.26l-5.76,1.4a.27.27,0,0,1-.27-.27V54.48l-8.62,2.08h-.06a.28.28,0,0,1-.17-.06.27.27,0,0,1-.1-.21V50.4a.27.27,0,0,1,.21-.26l24-5.77-.11,0a.29.29,0,0,1,.17.06.28.28,0,0,1,.1.22Zm3.87,4.25a3.51,3.51,0,1,1-3.51,3.51A3.52,3.52,0,0,1,149.4,54.82Zm-2.85,47.08a.27.27,0,0,1-.17-.06.27.27,0,0,1-.1-.21V66.86a.27.27,0,0,1,.21-.26l5.7-1.38h.06a.28.28,0,0,1,.27.27v34.75a.27.27,0,0,1-.21.26l-5.7,1.39Zm22,43.72a9.68,9.68,0,0,1-7.66,3.36h-.39a9.2,9.2,0,0,1-6.38-3.2c-4-4.3-6.48-12.45-6.21-20.76.39-11.7,6.36-21.28,13.6-21.82l.67,0c5,0,8.15,4.27,9.27,12.69l0,.35a.26.26,0,0,1-.2.28l-5.34,1h0a.25.25,0,0,1-.15,0,.24.24,0,0,1-.1-.17l-.05-.39c-.66-4.87-1.82-7-3.76-7a3.67,3.67,0,0,0-.76.09c-3,.64-6.44,6.19-6.73,15.19a27.48,27.48,0,0,0,2,11.5c1.26,2.95,2.92,4.75,4.42,4.83H161a3.87,3.87,0,0,0,3-1.28c2.22-2.43,2.23-7.68,2-10.78l-6.65,1.36h-.05a.27.27,0,0,1-.15-.05.25.25,0,0,1-.1-.18l-.49-5.27a.25.25,0,0,1,.2-.27l13-2.66h.05a.25.25,0,0,1,.15,0,.26.26,0,0,1,.11.17l.05.39C172.51,125.62,174.12,139.18,168.53,145.62Zm3.09-49.3c-4.26,0-11.74-3.75-11.74-24.8,0-19,5.38-27.07,11.29-27.07.24,0,.48,0,.73,0,4.16,0,8.86,4.17,10,13.48l0,.22a.25.25,0,0,1-.2.28l-5.51,1.17h-.05a.26.26,0,0,1-.15,0,.26.26,0,0,1-.11-.18l0-.27c-.77-7-2.67-7.93-4.24-7.93-3.1,0-5.24,6.32-5.24,20.38,0,11.92,1.94,18,5.24,18,2,0,3.52-1.33,4.19-7.79l0-.17a.25.25,0,0,1,.19-.22l5.73-1.38h.07a.25.25,0,0,1,.26.26v.06l0,.33C180.38,94.27,174.8,96.32,171.62,96.32Zm14,43.41a.27.27,0,0,1-.21.26L180,141.27h-.06a.3.3,0,0,1-.17-.06.28.28,0,0,1-.1-.22V101.68a.28.28,0,0,1,.21-.26l5.41-1.31h.06a.27.27,0,0,1,.27.27Zm3.07-48a.28.28,0,0,1-.17-.06.27.27,0,0,1-.1-.21V23.59a.27.27,0,0,1,.21-.26l6-1.43h.06a.27.27,0,0,1,.17.06.27.27,0,0,1,.1.21V60.65l8.41-14.53a.27.27,0,0,1,.17-.13l7.37-1.77H211a.27.27,0,0,1,.22.11.27.27,0,0,1,0,.3L196.49,70.14l15.56,15.45a.27.27,0,0,1-.13.45l-6.52,1.57h-.06a.26.26,0,0,1-.19-.08L195,78.2V89.94a.27.27,0,0,1-.21.26l-6,1.47Zm31.68,70.06a.27.27,0,0,1-.18.13l-5.87,1.25h-.06a.27.27,0,0,1-.26-.2l-6.72-25.58L198,139.55l-1.32,11.19a.27.27,0,0,1-.21.23l-6.16,1.48h-.06a.26.26,0,0,1-.18-.07.27.27,0,0,1-.09-.24l6.52-54.62a.27.27,0,0,1,.2-.23L202.11,96h.07a.27.27,0,0,1,.26.2l17.93,65.33A.27.27,0,0,1,220.34,161.74ZM241,136.47a.27.27,0,0,1-.21.27l-5.59,1.33h-.06a.26.26,0,0,1-.17-.06.27.27,0,0,1-.1-.21V98.05c0-1.72-.62-2.55-1.89-2.55-2.28,0-6.93,4.77-7.58,5.26v39.52a.27.27,0,0,1-.22.27l-5.68,1.33h-.05a.26.26,0,0,1-.17-.06.27.27,0,0,1-.1-.21V92.12a.27.27,0,0,1,.22-.27l5.68-1.39h.05a.26.26,0,0,1,.17.06.27.27,0,0,1,.1.21v2.84c.24-.13,6.21-5.71,9.84-5.71,2.63,0,5.76,1.08,5.76,6.23Zm26.38-58.92a.26.26,0,0,1,.17.06.27.27,0,0,1,.1.21v5.32a.27.27,0,0,1-.21.26l-8.87,2.11v39.83a.27.27,0,0,1-.21.27l-6.14,1.47h-.06A.27.27,0,0,1,252,127a.27.27,0,0,1-.1-.21V87.1l-6.37,1.66h-.07a.3.3,0,0,1-.17-.06.27.27,0,0,1-.1-.22V83.15a.27.27,0,0,1,.21-.26l21.94-5.33Zm-1-4.84a.27.27,0,0,1-.2.19l-5.27,1.27h-.06a.28.28,0,0,1-.19-.07L244.36,57.82V78a.27.27,0,0,1-.21.26l-5.48,1.32h-.06a.26.26,0,0,1-.17-.06.27.27,0,0,1-.1-.21v-44a.27.27,0,0,1,.21-.26l5-1.24a22.46,22.46,0,0,1,5.14-.65c5.38,0,9.23,2.6,10.29,6.95,1.2,4.92-1.51,11.94-9,16,3.74,3.67,16.17,16.23,16.29,16.35A.27.27,0,0,1,266.39,72.71Z"/><path class="cls-2" d="M253.59,42.21c-.29-2.47-2.21-3.95-5.12-3.95a12.89,12.89,0,0,0-4.11.78v13C250.92,50.38,254,45.76,253.59,42.21Z"/><polygon class="cls-2" points="198.67 133.82 205.9 132.09 201.08 113.67 198.67 133.82"/></svg>