<?xml version="1.0" encoding="utf-8"?>
<!-- Generator: Adobe Illustrator 22.1.0, SVG Export Plug-In . SVG Version: 6.00 Build 0)  -->
<svg version="1.1" id="Layer_1" xmlns="http://www.w3.org/2000/svg" xmlns:xlink="http://www.w3.org/1999/xlink" x="0px" y="0px"
	 viewBox="0 0 147 200" style="enable-background:new 0 0 147 200;" xml:space="preserve">
<style type="text/css">
	.st0{fill:#E31B23;}
	.st1{fill:#231F20;}
</style>
<g>
	<g>
		<path class="st0" d="M146.1,0.4c-0.6-0.4-1.3-0.5-2-0.3c-1.1,0.4-25.2,8.4-27.8,9.3c-2.6-0.9-27.8-9.3-27.8-9.3
			C88,0,87.5,0,87.1,0.1c0,0-25.2,8.4-27.8,9.3c-2.6-0.9-27.8-9.3-27.8-9.3C31,0,30.5,0,30,0.1L1.5,9.6C0.6,9.9,0,10.8,0,11.7v95
			c0,0.7,0.3,1.4,0.9,1.8c0.4,0.3,0.8,0.4,1.3,0.4c0.2,0,0.5,0,0.7-0.1l27.8-9.3c2.6,0.9,27.8,9.3,27.8,9.3c0.4,0.1,0.9,0.1,1.4,0
			l27.8-9.3c2.6,0.9,27.8,9.3,27.8,9.3c0.4,0.1,0.9,0.1,1.4,0l28.5-9.5c0.9-0.3,1.5-1.1,1.5-2.1v-95C147,1.5,146.6,0.8,146.1,0.4z
			 M142.6,84.5v11.2c-3.1,1-18.3,6.1-24.2,8.1V92.8L142.6,84.5z M118.4,88.4V76.8l24.2-8.3v11.5L118.4,88.4z M118.4,72.4V60.9
			l24.2-8.3v11.5L118.4,72.4z M142.6,20.8v11.5l-24.2,8.3V29L142.6,20.8z M118.4,24.6V13.3l24.2-8.1v11.1L118.4,24.6z M118.4,56.5
			V45l24.2-8.3v11.5L118.4,56.5z M89.6,5.1l25.3,8.4V104l-25.3-8.4V5.1z M86.1,84.4v11.1c-4,1.3-19.1,6.3-24.8,8.3V92.9L86.1,84.4z
			 M61.3,88.5V77l24.8-8.5V80L61.3,88.5z M61.3,72.6V61l24.8-8.5v11.5L61.3,72.6z M61.3,56.6V45.1l24.8-8.5v11.5L61.3,56.6z
			 M61.3,40.7V29.2l24.8-8.5v11.5L61.3,40.7z M61.3,24.8V13.3l6-2c6.3-2.1,15.1-5,18.9-6.3v11.2L61.3,24.8z M57.8,13.5v90.4l-7-2.3
			c-6.6-2.2-15-5-18.1-6V5.1C38.5,7.1,54.1,12.3,57.8,13.5z M29.2,84.1v11.3c-3.8,1.3-20.1,6.7-24.8,8.3V92.6L29.2,84.1z M4.4,88.2
			V76.7l24.8-8.5v11.5L4.4,88.2z M4.4,72.3V60.7l24.8-8.5v11.5L4.4,72.3z M4.4,56.3V44.8l24.8-8.5v11.5L4.4,56.3z M4.4,40.4V28.9
			l24.8-8.5v11.5L4.4,40.4z M4.4,24.5V13.3L29.2,5v11L4.4,24.5z"/>
	</g>
	<g>
		<g>
			<path class="st1" d="M32.1,120.9H18.8v42.7h-4.9v-42.7H0.8v-4.1h31.3V120.9z"/>
			<path class="st1" d="M52.3,115.9c13.7,0,14.4,15.6,14.4,24.3c0,6.2,0.5,24.3-14.4,24.3c-14.4,0-14.4-17.7-14.4-24.3
				C37.9,120.6,44.4,115.9,52.3,115.9z M61.7,140.2c0-4.3,0.7-20.2-9.5-20.2c-10.4,0-9.5,17.5-9.5,20.2c0,5.3-0.3,20.2,9.5,20.2
				C57.1,160.4,61.7,157.2,61.7,140.2z"/>
			<path class="st1" d="M80.5,116.8h11.3c8.5,0,13.4,5.1,13.4,14.3c0,9.9-6.5,14.1-15.7,14.1h-4.1v18.4h-4.9V116.8z M90.8,141.1
				c5.7,0,9.5-3.4,9.5-10c0-7.3-3.4-10.3-9.2-10.3h-5.7v20.2H90.8z"/>
			<path class="st1" d="M130.3,115.9c13.7,0,14.4,15.6,14.4,24.3c0,6.2,0.5,24.3-14.4,24.3c-14.4,0-14.4-17.7-14.4-24.3
				C115.9,120.6,122.4,115.9,130.3,115.9z M139.8,140.2c0-4.3,0.7-20.2-9.5-20.2c-10.4,0-9.5,17.5-9.5,20.2c0,5.3-0.3,20.2,9.5,20.2
				C135.2,160.4,139.8,157.2,139.8,140.2z"/>
		</g>
		<g>
			<path class="st1" d="M2.3,173.6h6.6c5,0,8.4,2.8,8.4,13c0,10-3.1,13-8.7,13H2.3V173.6z M5,197.2h3.3c3.7,0,6.2-1,6.2-10.7
				c0-9.9-2.8-10.7-6.3-10.7H5V197.2z"/>
			<path class="st1" d="M38.3,175.8H27.6v9.2h7.7v2.3h-7.7v9.9h11v2.3H24.9v-25.9h13.5V175.8z"/>
			<path class="st1" d="M57.9,178.3c-1.6-1.4-3.4-2.9-5.6-2.9c-2.3,0-4.2,1.6-4.2,4c0,1.4,0.3,2.6,3.7,4.7l2.1,1.3
				c4.8,2.9,6,4.3,6,7.3c0,4.6-3.1,7.4-7.6,7.4c-3.3,0-5.8-1.6-7.8-4.2l2.1-1.7c1.3,2,3.3,3.6,5.8,3.6c2.7,0,4.9-2,4.9-4.8
				c0-2.1-0.1-2.8-4.7-5.5l-2.3-1.4c-2.6-1.5-4.8-3.3-4.8-6.5c0-4.1,3.1-6.4,7-6.4c2.7,0,5.2,1.4,7.1,3.2L57.9,178.3z"/>
			<path class="st1" d="M77.3,175.8h-3.5v21.4h3.5v2.3h-9.7v-2.3h3.5v-21.4h-3.5v-2.3h9.7V175.8z"/>
			<path class="st1" d="M91.8,188.8v-2.3h8.8V200H98v-2.5c-1.3,1.6-3.3,2.5-5.4,2.5c-2.1,0-7.8-0.4-7.8-12.9c0-10.3,3.1-14,8.2-14
				c4.4,0,6.4,3.1,6.5,7.1h-2.7c0.2-2.4-0.9-4.9-3.7-4.9c-5.4,0-5.6,7.5-5.6,11.4c0,3.6,0.2,11,5.3,11c2.5,0,5.3-2,5.3-7.2v-1.7
				H91.8z"/>
			<path class="st1" d="M107.2,173.6h3.1l7.9,19.4h0.1v-19.4h2.7v26.2h-2.6l-8.5-20.9l-0.1,0.1v20.6h-2.7V173.6z"/>
			<path class="st1" d="M141.1,178.3c-1.6-1.4-3.4-2.9-5.6-2.9c-2.3,0-4.2,1.6-4.2,4c0,1.4,0.3,2.6,3.7,4.7l2.1,1.3
				c4.8,2.9,6,4.3,6,7.3c0,4.6-3.1,7.4-7.6,7.4c-3.3,0-5.8-1.6-7.8-4.2l2.1-1.7c1.3,2,3.3,3.6,5.8,3.6c2.7,0,4.9-2,4.9-4.8
				c0-2.1-0.1-2.8-4.7-5.5l-2.3-1.4c-2.6-1.5-4.8-3.3-4.8-6.5c0-4.1,3.1-6.4,7-6.4c2.7,0,5.2,1.4,7.1,3.2L141.1,178.3z"/>
		</g>
	</g>
</g>
</svg>
